# MagicaVoxel @ Ephtracy

# group
o 

# material
mtllib Bow-3.mtl
usemtl palette

# normals
vn -1 0 0
vn 1 0 0
vn 0 0 1
vn 0 0 -1
vn 0 -1 0
vn 0 1 0

# texcoords
vt 0.970703 0.5
vt 0.974609 0.5
vt 0.978516 0.5
vt 0.982422 0.5
vt 0.986328 0.5
vt 0.990234 0.5
vt 0.994141 0.5

# verts
v -0.8 0.2 0.1
v -0.8 0.2 0
v -0.8 0.6 0.1
v -0.8 0.6 0
v -0.7 0.1 0.1
v -0.7 0.1 0
v -0.7 0.2 0.1
v -0.7 0.2 0
v -0.7 0.6 0.1
v -0.7 0.6 0
v -0.7 0.9 0.1
v -0.7 0.9 0
v -0.6 0.9 0.1
v -0.6 0.9 0
v -0.6 1.1 0.1
v -0.6 1.1 0
v -0.5 1.1 0.1
v -0.5 1.1 0
v -0.5 1.2 0.1
v -0.5 1.2 0
v -0.4 0.4 0.1
v -0.4 0.4 0
v -0.4 0.5 0.1
v -0.4 0.5 0
v -0.4 1.2 0.1
v -0.4 1.2 0
v -0.4 1.3 0.1
v -0.4 1.3 0
v -0.3 0.5 0.1
v -0.3 0.5 0
v -0.3 0.6 0.1
v -0.3 0.6 0
v -0.3 1.3 0.1
v -0.3 1.3 0
v -0.3 1.4 0.1
v -0.3 1.4 0
v -0.2 0.6 0.1
v -0.2 0.6 0
v -0.2 0.7 0.1
v -0.2 0.7 0
v -0.1 0.7 0.1
v -0.1 0.7 0
v -0.1 0.8 0.1
v -0.1 0.8 0
v -0.1 1.4 0.1
v -0.1 1.4 0
v -0.1 1.5 0.1
v -0.1 1.5 0
v 0 0.8 0.1
v 0 0.8 0
v 0 0.9 0.1
v 0 0.9 0
v 0.1 0.9 0.1
v 0.1 0.9 0
v 0.1 1 0.1
v 0.1 1 0
v 0.2 1 0.1
v 0.2 1 0
v 0.2 1.1 0.1
v 0.2 1.1 0
v 0.2 1.5 0.1
v 0.2 1.5 0
v 0.2 1.6 0.1
v 0.2 1.6 0
v 0.3 1.1 0.1
v 0.3 1.1 0
v 0.3 1.2 0.1
v 0.3 1.2 0
v 0.4 1.2 0.1
v 0.4 1.2 0
v 0.4 1.3 0.1
v 0.4 1.3 0
v -0.6 0.1 0.1
v -0.6 0.1 0
v -0.6 0.2 0.1
v -0.6 0.2 0
v -0.5 0.2 0.1
v -0.5 0.2 0
v -0.5 0.3 0.1
v -0.5 0.3 0
v -0.5 0.4 0.1
v -0.5 0.4 0
v -0.5 0.6 0.1
v -0.5 0.6 0
v -0.4 0.3 0.1
v -0.4 0.3 0
v -0.4 0.4 0.1
v -0.4 0.4 0
v -0.4 0.6 0.1
v -0.4 0.6 0
v -0.4 0.9 0.1
v -0.4 0.9 0
v -0.3 0.4 0.1
v -0.3 0.4 0
v -0.3 0.5 0.1
v -0.3 0.5 0
v -0.3 0.9 0.1
v -0.3 0.9 0
v -0.3 1 0.1
v -0.3 1 0
v -0.2 0.5 0.1
v -0.2 0.5 0
v -0.2 0.6 0.1
v -0.2 0.6 0
v -0.2 1 0.1
v -0.2 1 0
v -0.2 1.1 0.1
v -0.2 1.1 0
v -0.1 0.6 0.1
v -0.1 0.6 0
v -0.1 0.7 0.1
v -0.1 0.7 0
v -0.1 1.1 0.1
v -0.1 1.1 0
v -0.1 1.2 0.1
v -0.1 1.2 0
v 0 0.7 0.1
v 0 0.7 0
v 0 0.8 0.1
v 0 0.8 0
v 0.1 0.8 0.1
v 0.1 0.8 0
v 0.1 0.9 0.1
v 0.1 0.9 0
v 0.2 0.9 0.1
v 0.2 0.9 0
v 0.2 1 0.1
v 0.2 1 0
v 0.2 1.2 0.1
v 0.2 1.2 0
v 0.2 1.3 0.1
v 0.2 1.3 0
v 0.3 1 0.1
v 0.3 1 0
v 0.3 1.1 0.1
v 0.3 1.1 0
v 0.4 1.1 0.1
v 0.4 1.1 0
v 0.4 1.2 0.1
v 0.4 1.2 0
v 0.5 1.2 0.1
v 0.5 1.2 0
v 0.5 1.3 0.1
v 0.5 1.3 0
v 0.6 1.3 0.1
v 0.6 1.3 0
v 0.6 1.4 0.1
v 0.6 1.4 0
v 0.6 1.5 0.1
v 0.6 1.5 0
v 0.6 1.6 0.1
v 0.6 1.6 0
v 0.7 1.4 0.1
v 0.7 1.4 0
v 0.7 1.5 0.1
v 0.7 1.5 0
v -0.8 0.2 0.1
v -0.8 0.6 0.1
v -0.7 0.1 0.1
v -0.7 0.2 0.1
v -0.7 0.3 0.1
v -0.7 0.5 0.1
v -0.7 0.6 0.1
v -0.7 0.9 0.1
v -0.6 0.1 0.1
v -0.6 0.2 0.1
v -0.6 0.3 0.1
v -0.6 0.5 0.1
v -0.6 0.6 0.1
v -0.6 0.7 0.1
v -0.6 0.8 0.1
v -0.6 0.9 0.1
v -0.6 1.1 0.1
v -0.5 0.2 0.1
v -0.5 0.3 0.1
v -0.5 0.4 0.1
v -0.5 0.6 0.1
v -0.5 0.7 0.1
v -0.5 0.8 0.1
v -0.5 0.9 0.1
v -0.5 1 0.1
v -0.5 1.1 0.1
v -0.5 1.2 0.1
v -0.4 0.3 0.1
v -0.4 0.4 0.1
v -0.4 0.5 0.1
v -0.4 0.6 0.1
v -0.4 0.9 0.1
v -0.4 1 0.1
v -0.4 1.1 0.1
v -0.4 1.2 0.1
v -0.4 1.3 0.1
v -0.3 0.4 0.1
v -0.3 0.5 0.1
v -0.3 0.6 0.1
v -0.3 0.9 0.1
v -0.3 1 0.1
v -0.3 1.1 0.1
v -0.3 1.2 0.1
v -0.3 1.3 0.1
v -0.3 1.4 0.1
v -0.2 0.5 0.1
v -0.2 0.6 0.1
v -0.2 0.7 0.1
v -0.2 1 0.1
v -0.2 1.1 0.1
v -0.2 1.2 0.1
v -0.2 1.3 0.1
v -0.1 0.6 0.1
v -0.1 0.7 0.1
v -0.1 0.8 0.1
v -0.1 1.1 0.1
v -0.1 1.2 0.1
v -0.1 1.3 0.1
v -0.1 1.4 0.1
v -0.1 1.5 0.1
v 0 0.7 0.1
v 0 0.8 0.1
v 0 0.9 0.1
v 0 1.3 0.1
v 0 1.4 0.1
v 0.1 0.8 0.1
v 0.1 0.9 0.1
v 0.1 1 0.1
v 0.1 1.3 0.1
v 0.1 1.4 0.1
v 0.2 0.9 0.1
v 0.2 1 0.1
v 0.2 1.1 0.1
v 0.2 1.2 0.1
v 0.2 1.3 0.1
v 0.2 1.4 0.1
v 0.2 1.5 0.1
v 0.2 1.6 0.1
v 0.3 1 0.1
v 0.3 1.1 0.1
v 0.3 1.2 0.1
v 0.3 1.4 0.1
v 0.3 1.5 0.1
v 0.4 1.1 0.1
v 0.4 1.2 0.1
v 0.4 1.3 0.1
v 0.5 1.2 0.1
v 0.5 1.3 0.1
v 0.5 1.4 0.1
v 0.5 1.5 0.1
v 0.6 1.3 0.1
v 0.6 1.4 0.1
v 0.6 1.5 0.1
v 0.6 1.6 0.1
v 0.7 1.4 0.1
v 0.7 1.5 0.1
v -0.8 0.2 0
v -0.8 0.6 0
v -0.7 0.1 0
v -0.7 0.2 0
v -0.7 0.3 0
v -0.7 0.5 0
v -0.7 0.6 0
v -0.7 0.9 0
v -0.6 0.1 0
v -0.6 0.2 0
v -0.6 0.3 0
v -0.6 0.5 0
v -0.6 0.6 0
v -0.6 0.7 0
v -0.6 0.8 0
v -0.6 0.9 0
v -0.6 1.1 0
v -0.5 0.2 0
v -0.5 0.3 0
v -0.5 0.4 0
v -0.5 0.6 0
v -0.5 0.7 0
v -0.5 0.8 0
v -0.5 0.9 0
v -0.5 1 0
v -0.5 1.1 0
v -0.5 1.2 0
v -0.4 0.3 0
v -0.4 0.4 0
v -0.4 0.5 0
v -0.4 0.6 0
v -0.4 0.9 0
v -0.4 1 0
v -0.4 1.1 0
v -0.4 1.2 0
v -0.4 1.3 0
v -0.3 0.4 0
v -0.3 0.5 0
v -0.3 0.6 0
v -0.3 0.9 0
v -0.3 1 0
v -0.3 1.1 0
v -0.3 1.2 0
v -0.3 1.3 0
v -0.3 1.4 0
v -0.2 0.5 0
v -0.2 0.6 0
v -0.2 0.7 0
v -0.2 1 0
v -0.2 1.1 0
v -0.2 1.2 0
v -0.2 1.3 0
v -0.1 0.6 0
v -0.1 0.7 0
v -0.1 0.8 0
v -0.1 1.1 0
v -0.1 1.2 0
v -0.1 1.3 0
v -0.1 1.4 0
v -0.1 1.5 0
v 0 0.7 0
v 0 0.8 0
v 0 0.9 0
v 0 1.3 0
v 0 1.4 0
v 0.1 0.8 0
v 0.1 0.9 0
v 0.1 1 0
v 0.1 1.3 0
v 0.1 1.4 0
v 0.2 0.9 0
v 0.2 1 0
v 0.2 1.1 0
v 0.2 1.2 0
v 0.2 1.3 0
v 0.2 1.4 0
v 0.2 1.5 0
v 0.2 1.6 0
v 0.3 1 0
v 0.3 1.1 0
v 0.3 1.2 0
v 0.3 1.4 0
v 0.3 1.5 0
v 0.4 1.1 0
v 0.4 1.2 0
v 0.4 1.3 0
v 0.5 1.2 0
v 0.5 1.3 0
v 0.5 1.4 0
v 0.5 1.5 0
v 0.6 1.3 0
v 0.6 1.4 0
v 0.6 1.5 0
v 0.6 1.6 0
v 0.7 1.4 0
v 0.7 1.5 0
v -0.7 0.1 0.1
v -0.6 0.1 0.1
v -0.7 0.1 0
v -0.6 0.1 0
v -0.8 0.2 0.1
v -0.7 0.2 0.1
v -0.6 0.2 0.1
v -0.5 0.2 0.1
v -0.8 0.2 0
v -0.7 0.2 0
v -0.6 0.2 0
v -0.5 0.2 0
v -0.5 0.3 0.1
v -0.4 0.3 0.1
v -0.5 0.3 0
v -0.4 0.3 0
v -0.4 0.4 0.1
v -0.3 0.4 0.1
v -0.4 0.4 0
v -0.3 0.4 0
v -0.3 0.5 0.1
v -0.2 0.5 0.1
v -0.3 0.5 0
v -0.2 0.5 0
v -0.5 0.6 0.1
v -0.4 0.6 0.1
v -0.2 0.6 0.1
v -0.1 0.6 0.1
v -0.5 0.6 0
v -0.4 0.6 0
v -0.2 0.6 0
v -0.1 0.6 0
v -0.1 0.7 0.1
v 0 0.7 0.1
v -0.1 0.7 0
v 0 0.7 0
v 0 0.8 0.1
v 0.1 0.8 0.1
v 0 0.8 0
v 0.1 0.8 0
v -0.4 0.9 0.1
v -0.3 0.9 0.1
v 0.1 0.9 0.1
v 0.2 0.9 0.1
v -0.4 0.9 0
v -0.3 0.9 0
v 0.1 0.9 0
v 0.2 0.9 0
v -0.3 1 0.1
v -0.2 1 0.1
v 0.2 1 0.1
v 0.3 1 0.1
v -0.3 1 0
v -0.2 1 0
v 0.2 1 0
v 0.3 1 0
v -0.2 1.1 0.1
v -0.1 1.1 0.1
v 0.3 1.1 0.1
v 0.4 1.1 0.1
v -0.2 1.1 0
v -0.1 1.1 0
v 0.3 1.1 0
v 0.4 1.1 0
v -0.1 1.2 0.1
v 0.2 1.2 0.1
v 0.4 1.2 0.1
v 0.5 1.2 0.1
v -0.1 1.2 0
v 0.2 1.2 0
v 0.4 1.2 0
v 0.5 1.2 0
v 0.2 1.3 0.1
v 0.4 1.3 0.1
v 0.5 1.3 0.1
v 0.6 1.3 0.1
v 0.2 1.3 0
v 0.4 1.3 0
v 0.5 1.3 0
v 0.6 1.3 0
v 0.6 1.4 0.1
v 0.7 1.4 0.1
v 0.6 1.4 0
v 0.7 1.4 0
v -0.5 0.4 0.1
v -0.4 0.4 0.1
v -0.5 0.4 0
v -0.4 0.4 0
v -0.4 0.5 0.1
v -0.3 0.5 0.1
v -0.4 0.5 0
v -0.3 0.5 0
v -0.8 0.6 0.1
v -0.7 0.6 0.1
v -0.3 0.6 0.1
v -0.2 0.6 0.1
v -0.8 0.6 0
v -0.7 0.6 0
v -0.3 0.6 0
v -0.2 0.6 0
v -0.2 0.7 0.1
v -0.1 0.7 0.1
v -0.2 0.7 0
v -0.1 0.7 0
v -0.1 0.8 0.1
v 0 0.8 0.1
v -0.1 0.8 0
v 0 0.8 0
v -0.7 0.9 0.1
v -0.6 0.9 0.1
v 0 0.9 0.1
v 0.1 0.9 0.1
v -0.7 0.9 0
v -0.6 0.9 0
v 0 0.9 0
v 0.1 0.9 0
v 0.1 1 0.1
v 0.2 1 0.1
v 0.1 1 0
v 0.2 1 0
v -0.6 1.1 0.1
v -0.5 1.1 0.1
v 0.2 1.1 0.1
v 0.3 1.1 0.1
v -0.6 1.1 0
v -0.5 1.1 0
v 0.2 1.1 0
v 0.3 1.1 0
v -0.5 1.2 0.1
v -0.4 1.2 0.1
v 0.3 1.2 0.1
v 0.4 1.2 0.1
v -0.5 1.2 0
v -0.4 1.2 0
v 0.3 1.2 0
v 0.4 1.2 0
v -0.4 1.3 0.1
v -0.3 1.3 0.1
v -0.4 1.3 0
v -0.3 1.3 0
v -0.3 1.4 0.1
v -0.1 1.4 0.1
v -0.3 1.4 0
v -0.1 1.4 0
v -0.1 1.5 0.1
v 0.2 1.5 0.1
v 0.6 1.5 0.1
v 0.7 1.5 0.1
v -0.1 1.5 0
v 0.2 1.5 0
v 0.6 1.5 0
v 0.7 1.5 0
v 0.2 1.6 0.1
v 0.6 1.6 0.1
v 0.2 1.6 0
v 0.6 1.6 0

# faces
f 3/1/1 2/1/1 1/1/1
f 4/1/1 2/1/1 3/1/1
f 7/4/1 6/4/1 5/4/1
f 8/4/1 6/4/1 7/4/1
f 11/1/1 10/1/1 9/1/1
f 12/1/1 10/1/1 11/1/1
f 15/1/1 14/1/1 13/1/1
f 16/1/1 14/1/1 15/1/1
f 19/1/1 18/1/1 17/1/1
f 20/1/1 18/1/1 19/1/1
f 23/7/1 22/7/1 21/7/1
f 24/7/1 22/7/1 23/7/1
f 27/1/1 26/1/1 25/1/1
f 28/1/1 26/1/1 27/1/1
f 31/7/1 30/7/1 29/7/1
f 32/7/1 30/7/1 31/7/1
f 35/1/1 34/1/1 33/1/1
f 36/1/1 34/1/1 35/1/1
f 39/7/1 38/7/1 37/7/1
f 40/7/1 38/7/1 39/7/1
f 43/7/1 42/7/1 41/7/1
f 44/7/1 42/7/1 43/7/1
f 47/1/1 46/1/1 45/1/1
f 48/1/1 46/1/1 47/1/1
f 51/7/1 50/7/1 49/7/1
f 52/7/1 50/7/1 51/7/1
f 55/7/1 54/7/1 53/7/1
f 56/7/1 54/7/1 55/7/1
f 59/7/1 58/7/1 57/7/1
f 60/7/1 58/7/1 59/7/1
f 63/1/1 62/1/1 61/1/1
f 64/1/1 62/1/1 63/1/1
f 67/7/1 66/7/1 65/7/1
f 68/7/1 66/7/1 67/7/1
f 71/7/1 70/7/1 69/7/1
f 72/7/1 70/7/1 71/7/1
f 73/4/2 74/4/2 75/4/2
f 75/4/2 74/4/2 76/4/2
f 77/4/2 78/4/2 79/4/2
f 79/4/2 78/4/2 80/4/2
f 81/4/2 82/4/2 83/4/2
f 83/4/2 82/4/2 84/4/2
f 85/7/2 86/7/2 87/7/2
f 87/7/2 86/7/2 88/7/2
f 89/4/2 90/4/2 91/4/2
f 91/4/2 90/4/2 92/4/2
f 93/7/2 94/7/2 95/7/2
f 95/7/2 94/7/2 96/7/2
f 97/5/2 98/5/2 99/5/2
f 99/5/2 98/5/2 100/5/2
f 101/7/2 102/7/2 103/7/2
f 103/7/2 102/7/2 104/7/2
f 105/5/2 106/5/2 107/5/2
f 107/5/2 106/5/2 108/5/2
f 109/7/2 110/7/2 111/7/2
f 111/7/2 110/7/2 112/7/2
f 113/5/2 114/5/2 115/5/2
f 115/5/2 114/5/2 116/5/2
f 117/7/2 118/7/2 119/7/2
f 119/7/2 118/7/2 120/7/2
f 121/7/2 122/7/2 123/7/2
f 123/7/2 122/7/2 124/7/2
f 125/7/2 126/7/2 127/7/2
f 127/7/2 126/7/2 128/7/2
f 129/4/2 130/4/2 131/4/2
f 131/4/2 130/4/2 132/4/2
f 133/7/2 134/7/2 135/7/2
f 135/7/2 134/7/2 136/7/2
f 137/7/2 138/7/2 139/7/2
f 139/7/2 138/7/2 140/7/2
f 141/7/2 142/7/2 143/7/2
f 143/7/2 142/7/2 144/7/2
f 145/4/2 146/4/2 147/4/2
f 147/4/2 146/4/2 148/4/2
f 149/1/2 150/1/2 151/1/2
f 151/1/2 150/1/2 152/1/2
f 153/4/2 154/4/2 155/4/2
f 155/4/2 154/4/2 156/4/2
f 160/1/3 158/1/3 157/1/3
f 161/1/3 158/1/3 160/1/3
f 162/1/3 158/1/3 161/1/3
f 163/1/3 158/1/3 162/1/3
f 165/4/3 160/4/3 159/4/3
f 166/2/3 161/2/3 160/2/3
f 166/4/3 160/4/3 165/4/3
f 167/3/3 162/3/3 161/3/3
f 167/2/3 161/2/3 166/2/3
f 168/2/3 163/2/3 162/2/3
f 168/3/3 162/3/3 167/3/3
f 169/1/3 164/1/3 163/1/3
f 169/2/3 163/2/3 168/2/3
f 170/1/3 164/1/3 169/1/3
f 171/1/3 164/1/3 170/1/3
f 172/1/3 164/1/3 171/1/3
f 174/4/3 168/4/3 167/4/3
f 174/4/3 167/4/3 166/4/3
f 174/4/3 169/4/3 168/4/3
f 175/4/3 169/4/3 174/4/3
f 176/4/3 169/4/3 175/4/3
f 177/2/3 170/2/3 169/2/3
f 177/4/3 169/4/3 176/4/3
f 178/3/3 171/3/3 170/3/3
f 178/2/3 170/2/3 177/2/3
f 179/2/3 172/2/3 171/2/3
f 179/3/3 171/3/3 178/3/3
f 180/1/3 173/1/3 172/1/3
f 180/2/3 172/2/3 179/2/3
f 181/1/3 173/1/3 180/1/3
f 182/1/3 173/1/3 181/1/3
f 184/7/3 176/7/3 175/7/3
f 185/7/3 176/7/3 184/7/3
f 187/4/3 179/4/3 178/4/3
f 187/4/3 178/4/3 177/4/3
f 187/4/3 180/4/3 179/4/3
f 188/3/3 181/3/3 180/3/3
f 188/4/3 180/4/3 187/4/3
f 189/5/3 182/5/3 181/5/3
f 189/3/3 181/3/3 188/3/3
f 190/1/3 183/1/3 182/1/3
f 190/5/3 182/5/3 189/5/3
f 191/1/3 183/1/3 190/1/3
f 193/7/3 186/7/3 185/7/3
f 194/7/3 186/7/3 193/7/3
f 196/5/3 189/5/3 188/5/3
f 197/6/3 190/6/3 189/6/3
f 197/5/3 189/5/3 196/5/3
f 198/5/3 191/5/3 190/5/3
f 198/6/3 190/6/3 197/6/3
f 199/1/3 192/1/3 191/1/3
f 199/5/3 191/5/3 198/5/3
f 200/1/3 192/1/3 199/1/3
f 202/7/3 195/7/3 194/7/3
f 203/7/3 195/7/3 202/7/3
f 205/5/3 198/5/3 197/5/3
f 206/6/3 199/6/3 198/6/3
f 206/5/3 198/5/3 205/5/3
f 207/5/3 200/5/3 199/5/3
f 207/6/3 199/6/3 206/6/3
f 208/1/3 201/1/3 200/1/3
f 208/5/3 200/5/3 207/5/3
f 209/7/3 204/7/3 203/7/3
f 210/7/3 204/7/3 209/7/3
f 212/5/3 207/5/3 206/5/3
f 213/3/3 208/3/3 207/3/3
f 213/5/3 207/5/3 212/5/3
f 214/1/3 201/1/3 208/1/3
f 214/3/3 208/3/3 213/3/3
f 215/1/3 201/1/3 214/1/3
f 217/7/3 211/7/3 210/7/3
f 218/7/3 211/7/3 217/7/3
f 220/2/3 215/2/3 214/2/3
f 220/4/3 214/4/3 213/4/3
f 221/1/3 216/1/3 215/1/3
f 221/2/3 215/2/3 220/2/3
f 222/7/3 219/7/3 218/7/3
f 223/7/3 219/7/3 222/7/3
f 225/4/3 220/4/3 213/4/3
f 225/3/3 221/3/3 220/3/3
f 226/1/3 216/1/3 221/1/3
f 226/3/3 221/3/3 225/3/3
f 227/7/3 224/7/3 223/7/3
f 228/7/3 224/7/3 227/7/3
f 230/4/3 225/4/3 213/4/3
f 231/2/3 226/2/3 225/2/3
f 231/4/3 225/4/3 230/4/3
f 232/1/3 216/1/3 226/1/3
f 232/2/3 226/2/3 231/2/3
f 233/1/3 216/1/3 232/1/3
f 235/7/3 229/7/3 228/7/3
f 236/7/3 229/7/3 235/7/3
f 238/2/3 233/2/3 232/2/3
f 238/4/3 232/4/3 231/4/3
f 239/1/3 234/1/3 233/1/3
f 239/2/3 233/2/3 238/2/3
f 240/7/3 237/7/3 236/7/3
f 241/7/3 237/7/3 240/7/3
f 242/4/3 238/4/3 231/4/3
f 243/7/3 242/7/3 241/7/3
f 244/4/3 238/4/3 242/4/3
f 244/7/3 242/7/3 243/7/3
f 245/3/3 239/3/3 238/3/3
f 245/4/3 238/4/3 244/4/3
f 246/1/3 234/1/3 239/1/3
f 246/3/3 239/3/3 245/3/3
f 247/4/3 245/4/3 244/4/3
f 248/2/3 246/2/3 245/2/3
f 248/4/3 245/4/3 247/4/3
f 249/1/3 234/1/3 246/1/3
f 249/2/3 246/2/3 248/2/3
f 250/1/3 234/1/3 249/1/3
f 251/4/3 249/4/3 248/4/3
f 252/4/3 249/4/3 251/4/3
f 253/1/4 254/1/4 256/1/4
f 256/1/4 254/1/4 257/1/4
f 257/1/4 254/1/4 258/1/4
f 258/1/4 254/1/4 259/1/4
f 255/4/4 256/4/4 261/4/4
f 256/2/4 257/2/4 262/2/4
f 261/4/4 256/4/4 262/4/4
f 257/3/4 258/3/4 263/3/4
f 262/2/4 257/2/4 263/2/4
f 258/2/4 259/2/4 264/2/4
f 263/3/4 258/3/4 264/3/4
f 259/1/4 260/1/4 265/1/4
f 264/2/4 259/2/4 265/2/4
f 265/1/4 260/1/4 266/1/4
f 266/1/4 260/1/4 267/1/4
f 267/1/4 260/1/4 268/1/4
f 263/4/4 264/4/4 270/4/4
f 262/4/4 263/4/4 270/4/4
f 264/4/4 265/4/4 270/4/4
f 270/4/4 265/4/4 271/4/4
f 271/4/4 265/4/4 272/4/4
f 265/2/4 266/2/4 273/2/4
f 272/4/4 265/4/4 273/4/4
f 266/3/4 267/3/4 274/3/4
f 273/2/4 266/2/4 274/2/4
f 267/2/4 268/2/4 275/2/4
f 274/3/4 267/3/4 275/3/4
f 268/1/4 269/1/4 276/1/4
f 275/2/4 268/2/4 276/2/4
f 276/1/4 269/1/4 277/1/4
f 277/1/4 269/1/4 278/1/4
f 271/7/4 272/7/4 280/7/4
f 280/7/4 272/7/4 281/7/4
f 274/4/4 275/4/4 283/4/4
f 273/4/4 274/4/4 283/4/4
f 275/4/4 276/4/4 283/4/4
f 276/3/4 277/3/4 284/3/4
f 283/4/4 276/4/4 284/4/4
f 277/5/4 278/5/4 285/5/4
f 284/3/4 277/3/4 285/3/4
f 278/1/4 279/1/4 286/1/4
f 285/5/4 278/5/4 286/5/4
f 286/1/4 279/1/4 287/1/4
f 281/7/4 282/7/4 289/7/4
f 289/7/4 282/7/4 290/7/4
f 284/5/4 285/5/4 292/5/4
f 285/6/4 286/6/4 293/6/4
f 292/5/4 285/5/4 293/5/4
f 286/5/4 287/5/4 294/5/4
f 293/6/4 286/6/4 294/6/4
f 287/1/4 288/1/4 295/1/4
f 294/5/4 287/5/4 295/5/4
f 295/1/4 288/1/4 296/1/4
f 290/7/4 291/7/4 298/7/4
f 298/7/4 291/7/4 299/7/4
f 293/5/4 294/5/4 301/5/4
f 294/6/4 295/6/4 302/6/4
f 301/5/4 294/5/4 302/5/4
f 295/5/4 296/5/4 303/5/4
f 302/6/4 295/6/4 303/6/4
f 296/1/4 297/1/4 304/1/4
f 303/5/4 296/5/4 304/5/4
f 299/7/4 300/7/4 305/7/4
f 305/7/4 300/7/4 306/7/4
f 302/5/4 303/5/4 308/5/4
f 303/3/4 304/3/4 309/3/4
f 308/5/4 303/5/4 309/5/4
f 304/1/4 297/1/4 310/1/4
f 309/3/4 304/3/4 310/3/4
f 310/1/4 297/1/4 311/1/4
f 306/7/4 307/7/4 313/7/4
f 313/7/4 307/7/4 314/7/4
f 310/2/4 311/2/4 316/2/4
f 309/4/4 310/4/4 316/4/4
f 311/1/4 312/1/4 317/1/4
f 316/2/4 311/2/4 317/2/4
f 314/7/4 315/7/4 318/7/4
f 318/7/4 315/7/4 319/7/4
f 309/4/4 316/4/4 321/4/4
f 316/3/4 317/3/4 321/3/4
f 317/1/4 312/1/4 322/1/4
f 321/3/4 317/3/4 322/3/4
f 319/7/4 320/7/4 323/7/4
f 323/7/4 320/7/4 324/7/4
f 309/4/4 321/4/4 326/4/4
f 321/2/4 322/2/4 327/2/4
f 326/4/4 321/4/4 327/4/4
f 322/1/4 312/1/4 328/1/4
f 327/2/4 322/2/4 328/2/4
f 328/1/4 312/1/4 329/1/4
f 324/7/4 325/7/4 331/7/4
f 331/7/4 325/7/4 332/7/4
f 328/2/4 329/2/4 334/2/4
f 327/4/4 328/4/4 334/4/4
f 329/1/4 330/1/4 335/1/4
f 334/2/4 329/2/4 335/2/4
f 332/7/4 333/7/4 336/7/4
f 336/7/4 333/7/4 337/7/4
f 327/4/4 334/4/4 338/4/4
f 337/7/4 338/7/4 339/7/4
f 338/4/4 334/4/4 340/4/4
f 339/7/4 338/7/4 340/7/4
f 334/3/4 335/3/4 341/3/4
f 340/4/4 334/4/4 341/4/4
f 335/1/4 330/1/4 342/1/4
f 341/3/4 335/3/4 342/3/4
f 340/4/4 341/4/4 343/4/4
f 341/2/4 342/2/4 344/2/4
f 343/4/4 341/4/4 344/4/4
f 342/1/4 330/1/4 345/1/4
f 344/2/4 342/2/4 345/2/4
f 345/1/4 330/1/4 346/1/4
f 344/4/4 345/4/4 347/4/4
f 347/4/4 345/4/4 348/4/4
f 351/4/5 350/4/5 349/4/5
f 352/4/5 350/4/5 351/4/5
f 357/1/5 354/1/5 353/1/5
f 358/1/5 354/1/5 357/1/5
f 359/4/5 356/4/5 355/4/5
f 360/4/5 356/4/5 359/4/5
f 363/7/5 362/7/5 361/7/5
f 364/7/5 362/7/5 363/7/5
f 367/7/5 366/7/5 365/7/5
f 368/7/5 366/7/5 367/7/5
f 371/7/5 370/7/5 369/7/5
f 372/7/5 370/7/5 371/7/5
f 377/4/5 374/4/5 373/4/5
f 378/4/5 374/4/5 377/4/5
f 379/7/5 376/7/5 375/7/5
f 380/7/5 376/7/5 379/7/5
f 383/7/5 382/7/5 381/7/5
f 384/7/5 382/7/5 383/7/5
f 387/7/5 386/7/5 385/7/5
f 388/7/5 386/7/5 387/7/5
f 393/5/5 390/5/5 389/5/5
f 394/5/5 390/5/5 393/5/5
f 395/7/5 392/7/5 391/7/5
f 396/7/5 392/7/5 395/7/5
f 401/5/5 398/5/5 397/5/5
f 402/5/5 398/5/5 401/5/5
f 403/7/5 400/7/5 399/7/5
f 404/7/5 400/7/5 403/7/5
f 409/5/5 406/5/5 405/5/5
f 410/5/5 406/5/5 409/5/5
f 411/7/5 408/7/5 407/7/5
f 412/7/5 408/7/5 411/7/5
f 417/4/5 414/4/5 413/4/5
f 418/4/5 414/4/5 417/4/5
f 419/7/5 416/7/5 415/7/5
f 420/7/5 416/7/5 419/7/5
f 425/4/5 422/4/5 421/4/5
f 426/4/5 422/4/5 425/4/5
f 427/4/5 424/4/5 423/4/5
f 428/4/5 424/4/5 427/4/5
f 431/4/5 430/4/5 429/4/5
f 432/4/5 430/4/5 431/4/5
f 433/7/6 434/7/6 435/7/6
f 435/7/6 434/7/6 436/7/6
f 437/7/6 438/7/6 439/7/6
f 439/7/6 438/7/6 440/7/6
f 441/1/6 442/1/6 445/1/6
f 445/1/6 442/1/6 446/1/6
f 443/7/6 444/7/6 447/7/6
f 447/7/6 444/7/6 448/7/6
f 449/7/6 450/7/6 451/7/6
f 451/7/6 450/7/6 452/7/6
f 453/7/6 454/7/6 455/7/6
f 455/7/6 454/7/6 456/7/6
f 457/1/6 458/1/6 461/1/6
f 461/1/6 458/1/6 462/1/6
f 459/7/6 460/7/6 463/7/6
f 463/7/6 460/7/6 464/7/6
f 465/7/6 466/7/6 467/7/6
f 467/7/6 466/7/6 468/7/6
f 469/1/6 470/1/6 473/1/6
f 473/1/6 470/1/6 474/1/6
f 471/7/6 472/7/6 475/7/6
f 475/7/6 472/7/6 476/7/6
f 477/1/6 478/1/6 481/1/6
f 481/1/6 478/1/6 482/1/6
f 479/7/6 480/7/6 483/7/6
f 483/7/6 480/7/6 484/7/6
f 485/1/6 486/1/6 487/1/6
f 487/1/6 486/1/6 488/1/6
f 489/1/6 490/1/6 491/1/6
f 491/1/6 490/1/6 492/1/6
f 493/1/6 494/1/6 497/1/6
f 497/1/6 494/1/6 498/1/6
f 495/4/6 496/4/6 499/4/6
f 499/4/6 496/4/6 500/4/6
f 501/1/6 502/1/6 503/1/6
f 503/1/6 502/1/6 504/1/6
