# MagicaVoxel @ Ephtracy

# group
o 

# material
mtllib Bow-2.mtl
usemtl palette

# normals
vn -1 0 0
vn 1 0 0
vn 0 0 1
vn 0 0 -1
vn 0 -1 0
vn 0 1 0

# texcoords
vt 0.939453 0.5
vt 0.943359 0.5
vt 0.947266 0.5
vt 0.970703 0.5
vt 0.974609 0.5
vt 0.978516 0.5
vt 0.982422 0.5
vt 0.986328 0.5
vt 0.990234 0.5
vt 0.994141 0.5

# verts
v -0.8 0.1 0.1
v -0.8 0.1 0
v -0.8 0.5 0.1
v -0.8 0.5 0
v -0.8 1.4 0.1
v -0.8 1.4 0
v -0.8 1.5 0.1
v -0.8 1.5 0
v -0.8 1.6 0.1
v -0.8 1.6 0
v -0.7 0 0.1
v -0.7 0 0
v -0.7 0.1 0.1
v -0.7 0.1 0
v -0.7 0.5 0.1
v -0.7 0.5 0
v -0.7 0.8 0.1
v -0.7 0.8 0
v -0.7 1.3 0.1
v -0.7 1.3 0
v -0.7 1.4 0.1
v -0.7 1.4 0
v -0.6 0.8 0.1
v -0.6 0.8 0
v -0.6 1 0.1
v -0.6 1 0
v -0.6 1.2 0.1
v -0.6 1.2 0
v -0.6 1.3 0.1
v -0.6 1.3 0
v -0.5 1 0.1
v -0.5 1 0
v -0.5 1.1 0.1
v -0.5 1.1 0
v -0.5 1.2 0.1
v -0.5 1.2 0
v -0.4 0.2 0.1
v -0.4 0.2 0
v -0.4 0.3 0.1
v -0.4 0.3 0
v -0.3 1.2 0.1
v -0.3 1.2 0
v -0.3 1.3 0.1
v -0.3 1.3 0
v -0.2 0.3 0.1
v -0.2 0.3 0
v -0.2 0.4 0.1
v -0.2 0.4 0
v -0.2 0.8 0.1
v -0.2 0.8 0
v -0.2 0.9 0.1
v -0.2 0.9 0
v -0.1 0.4 0.1
v -0.1 0.4 0
v -0.1 0.5 0.1
v -0.1 0.5 0
v -0.1 0.7 0.1
v -0.1 0.7 0
v -0.1 0.8 0.1
v -0.1 0.8 0
v -0.1 1.3 0.1
v -0.1 1.3 0
v -0.1 1.4 0.1
v -0.1 1.4 0
v 0 0.6 0.1
v 0 0.6 0
v 0 0.7 0.1
v 0 0.7 0
v 0.1 0.5 0.1
v 0.1 0.5 0
v 0.1 0.6 0.1
v 0.1 0.6 0
v 0.2 0.7 0.1
v 0.2 0.7 0
v 0.2 0.8 0.1
v 0.2 0.8 0
v 0.2 1.4 0.1
v 0.2 1.4 0
v 0.2 1.5 0.1
v 0.2 1.5 0
v 0.3 0.8 0.1
v 0.3 0.8 0
v 0.3 0.9 0.1
v 0.3 0.9 0
v 0.4 0.9 0.1
v 0.4 0.9 0
v 0.4 1.1 0.1
v 0.4 1.1 0
v 0.5 1.1 0.1
v 0.5 1.1 0
v 0.5 1.2 0.1
v 0.5 1.2 0
v -0.7 1.5 0.1
v -0.7 1.5 0
v -0.7 1.6 0.1
v -0.7 1.6 0
v -0.6 0 0.1
v -0.6 0 0
v -0.6 0.1 0.1
v -0.6 0.1 0
v -0.6 1.4 0.1
v -0.6 1.4 0
v -0.6 1.5 0.1
v -0.6 1.5 0
v -0.5 0.2 0.1
v -0.5 0.2 0
v -0.5 0.5 0.1
v -0.5 0.5 0
v -0.5 1.3 0.1
v -0.5 1.3 0
v -0.5 1.4 0.1
v -0.5 1.4 0
v -0.4 0.1 0.1
v -0.4 0.1 0
v -0.4 0.2 0.1
v -0.4 0.2 0
v -0.4 0.5 0.1
v -0.4 0.5 0
v -0.4 0.8 0.1
v -0.4 0.8 0
v -0.4 1.2 0.1
v -0.4 1.2 0
v -0.4 1.3 0.1
v -0.4 1.3 0
v -0.3 0.8 0.1
v -0.3 0.8 0
v -0.3 0.9 0.1
v -0.3 0.9 0
v -0.2 0.2 0.1
v -0.2 0.2 0
v -0.2 0.3 0.1
v -0.2 0.3 0
v -0.1 0.3 0.1
v -0.1 0.3 0
v -0.1 0.4 0.1
v -0.1 0.4 0
v -0.1 0.9 0.1
v -0.1 0.9 0
v -0.1 1 0.1
v -0.1 1 0
v -0.1 1.1 0.1
v -0.1 1.1 0
v 0 0.8 0.1
v 0 0.8 0
v 0 0.9 0.1
v 0 0.9 0
v 0.1 0.4 0.1
v 0.1 0.4 0
v 0.1 0.5 0.1
v 0.1 0.5 0
v 0.1 0.7 0.1
v 0.1 0.7 0
v 0.1 0.8 0.1
v 0.1 0.8 0
v 0.2 0.5 0.1
v 0.2 0.5 0
v 0.2 0.6 0.1
v 0.2 0.6 0
v 0.2 1.1 0.1
v 0.2 1.1 0
v 0.2 1.2 0.1
v 0.2 1.2 0
v 0.3 0.6 0.1
v 0.3 0.6 0
v 0.3 0.8 0.1
v 0.3 0.8 0
v 0.4 0.8 0.1
v 0.4 0.8 0
v 0.4 0.9 0.1
v 0.4 0.9 0
v 0.5 0.9 0.1
v 0.5 0.9 0
v 0.5 1.1 0.1
v 0.5 1.1 0
v 0.6 1.1 0.1
v 0.6 1.1 0
v 0.6 1.2 0.1
v 0.6 1.2 0
v 0.6 1.3 0.1
v 0.6 1.3 0
v 0.6 1.4 0.1
v 0.6 1.4 0
v 0.6 1.5 0.1
v 0.6 1.5 0
v 0.7 1.3 0.1
v 0.7 1.3 0
v 0.7 1.4 0.1
v 0.7 1.4 0
v -0.8 0.1 0.1
v -0.8 0.5 0.1
v -0.8 1.4 0.1
v -0.8 1.5 0.1
v -0.8 1.6 0.1
v -0.7 0 0.1
v -0.7 0.1 0.1
v -0.7 0.2 0.1
v -0.7 0.4 0.1
v -0.7 0.5 0.1
v -0.7 0.8 0.1
v -0.7 1.3 0.1
v -0.7 1.4 0.1
v -0.7 1.5 0.1
v -0.7 1.6 0.1
v -0.6 0 0.1
v -0.6 0.1 0.1
v -0.6 0.2 0.1
v -0.6 0.4 0.1
v -0.6 0.5 0.1
v -0.6 0.6 0.1
v -0.6 0.7 0.1
v -0.6 0.8 0.1
v -0.6 1 0.1
v -0.6 1.2 0.1
v -0.6 1.3 0.1
v -0.6 1.4 0.1
v -0.6 1.5 0.1
v -0.5 0.1 0.1
v -0.5 0.2 0.1
v -0.5 0.5 0.1
v -0.5 0.6 0.1
v -0.5 0.7 0.1
v -0.5 0.8 0.1
v -0.5 0.9 0.1
v -0.5 1 0.1
v -0.5 1.1 0.1
v -0.5 1.2 0.1
v -0.5 1.3 0.1
v -0.5 1.4 0.1
v -0.4 0.1 0.1
v -0.4 0.2 0.1
v -0.4 0.3 0.1
v -0.4 0.5 0.1
v -0.4 0.8 0.1
v -0.4 0.9 0.1
v -0.4 1 0.1
v -0.4 1.1 0.1
v -0.4 1.2 0.1
v -0.4 1.3 0.1
v -0.3 0.8 0.1
v -0.3 0.9 0.1
v -0.3 1 0.1
v -0.3 1.1 0.1
v -0.3 1.2 0.1
v -0.3 1.3 0.1
v -0.2 0.2 0.1
v -0.2 0.3 0.1
v -0.2 0.4 0.1
v -0.2 0.8 0.1
v -0.2 0.9 0.1
v -0.2 1 0.1
v -0.2 1.1 0.1
v -0.2 1.2 0.1
v -0.1 0.3 0.1
v -0.1 0.4 0.1
v -0.1 0.5 0.1
v -0.1 0.7 0.1
v -0.1 0.8 0.1
v -0.1 0.9 0.1
v -0.1 1 0.1
v -0.1 1.1 0.1
v -0.1 1.2 0.1
v -0.1 1.3 0.1
v -0.1 1.4 0.1
v 0 0.6 0.1
v 0 0.7 0.1
v 0 0.8 0.1
v 0 0.9 0.1
v 0 1.2 0.1
v 0 1.3 0.1
v 0.1 0.4 0.1
v 0.1 0.5 0.1
v 0.1 0.6 0.1
v 0.1 0.7 0.1
v 0.1 0.8 0.1
v 0.1 1.2 0.1
v 0.1 1.3 0.1
v 0.2 0.5 0.1
v 0.2 0.6 0.1
v 0.2 0.7 0.1
v 0.2 0.8 0.1
v 0.2 1.1 0.1
v 0.2 1.2 0.1
v 0.2 1.3 0.1
v 0.2 1.4 0.1
v 0.2 1.5 0.1
v 0.3 0.6 0.1
v 0.3 0.8 0.1
v 0.3 0.9 0.1
v 0.3 1.3 0.1
v 0.3 1.4 0.1
v 0.4 0.8 0.1
v 0.4 0.9 0.1
v 0.4 1.1 0.1
v 0.5 0.9 0.1
v 0.5 1.1 0.1
v 0.5 1.2 0.1
v 0.5 1.3 0.1
v 0.5 1.4 0.1
v 0.6 1.1 0.1
v 0.6 1.2 0.1
v 0.6 1.3 0.1
v 0.6 1.4 0.1
v 0.6 1.5 0.1
v 0.7 1.3 0.1
v 0.7 1.4 0.1
v -0.8 0.1 0
v -0.8 0.5 0
v -0.8 1.4 0
v -0.8 1.5 0
v -0.8 1.6 0
v -0.7 0 0
v -0.7 0.1 0
v -0.7 0.2 0
v -0.7 0.4 0
v -0.7 0.5 0
v -0.7 0.8 0
v -0.7 1.3 0
v -0.7 1.4 0
v -0.7 1.5 0
v -0.7 1.6 0
v -0.6 0 0
v -0.6 0.1 0
v -0.6 0.2 0
v -0.6 0.4 0
v -0.6 0.5 0
v -0.6 0.6 0
v -0.6 0.7 0
v -0.6 0.8 0
v -0.6 1 0
v -0.6 1.2 0
v -0.6 1.3 0
v -0.6 1.4 0
v -0.6 1.5 0
v -0.5 0.1 0
v -0.5 0.2 0
v -0.5 0.5 0
v -0.5 0.6 0
v -0.5 0.7 0
v -0.5 0.8 0
v -0.5 0.9 0
v -0.5 1 0
v -0.5 1.1 0
v -0.5 1.2 0
v -0.5 1.3 0
v -0.5 1.4 0
v -0.4 0.1 0
v -0.4 0.2 0
v -0.4 0.3 0
v -0.4 0.5 0
v -0.4 0.8 0
v -0.4 0.9 0
v -0.4 1 0
v -0.4 1.1 0
v -0.4 1.2 0
v -0.4 1.3 0
v -0.3 0.8 0
v -0.3 0.9 0
v -0.3 1 0
v -0.3 1.1 0
v -0.3 1.2 0
v -0.3 1.3 0
v -0.2 0.2 0
v -0.2 0.3 0
v -0.2 0.4 0
v -0.2 0.8 0
v -0.2 0.9 0
v -0.2 1 0
v -0.2 1.1 0
v -0.2 1.2 0
v -0.1 0.3 0
v -0.1 0.4 0
v -0.1 0.5 0
v -0.1 0.7 0
v -0.1 0.8 0
v -0.1 0.9 0
v -0.1 1 0
v -0.1 1.1 0
v -0.1 1.2 0
v -0.1 1.3 0
v -0.1 1.4 0
v 0 0.6 0
v 0 0.7 0
v 0 0.8 0
v 0 0.9 0
v 0 1.2 0
v 0 1.3 0
v 0.1 0.4 0
v 0.1 0.5 0
v 0.1 0.6 0
v 0.1 0.7 0
v 0.1 0.8 0
v 0.1 1.2 0
v 0.1 1.3 0
v 0.2 0.5 0
v 0.2 0.6 0
v 0.2 0.7 0
v 0.2 0.8 0
v 0.2 1.1 0
v 0.2 1.2 0
v 0.2 1.3 0
v 0.2 1.4 0
v 0.2 1.5 0
v 0.3 0.6 0
v 0.3 0.8 0
v 0.3 0.9 0
v 0.3 1.3 0
v 0.3 1.4 0
v 0.4 0.8 0
v 0.4 0.9 0
v 0.4 1.1 0
v 0.5 0.9 0
v 0.5 1.1 0
v 0.5 1.2 0
v 0.5 1.3 0
v 0.5 1.4 0
v 0.6 1.1 0
v 0.6 1.2 0
v 0.6 1.3 0
v 0.6 1.4 0
v 0.6 1.5 0
v 0.7 1.3 0
v 0.7 1.4 0
v -0.7 0 0.1
v -0.6 0 0.1
v -0.7 0 0
v -0.6 0 0
v -0.8 0.1 0.1
v -0.7 0.1 0.1
v -0.6 0.1 0.1
v -0.5 0.1 0.1
v -0.4 0.1 0.1
v -0.8 0.1 0
v -0.7 0.1 0
v -0.6 0.1 0
v -0.5 0.1 0
v -0.4 0.1 0
v -0.4 0.2 0.1
v -0.2 0.2 0.1
v -0.4 0.2 0
v -0.2 0.2 0
v -0.2 0.3 0.1
v -0.1 0.3 0.1
v -0.2 0.3 0
v -0.1 0.3 0
v -0.1 0.4 0.1
v 0.1 0.4 0.1
v -0.1 0.4 0
v 0.1 0.4 0
v -0.5 0.5 0.1
v -0.4 0.5 0.1
v 0.1 0.5 0.1
v 0.2 0.5 0.1
v -0.5 0.5 0
v -0.4 0.5 0
v 0.1 0.5 0
v 0.2 0.5 0
v 0 0.6 0.1
v 0.1 0.6 0.1
v 0.2 0.6 0.1
v 0.3 0.6 0.1
v 0 0.6 0
v 0.1 0.6 0
v 0.2 0.6 0
v 0.3 0.6 0
v -0.1 0.7 0.1
v 0 0.7 0.1
v -0.1 0.7 0
v 0 0.7 0
v -0.4 0.8 0.1
v -0.3 0.8 0.1
v -0.2 0.8 0.1
v -0.1 0.8 0.1
v 0.3 0.8 0.1
v 0.4 0.8 0.1
v -0.4 0.8 0
v -0.3 0.8 0
v -0.2 0.8 0
v -0.1 0.8 0
v 0.3 0.8 0
v 0.4 0.8 0
v -0.3 0.9 0.1
v -0.2 0.9 0.1
v 0.4 0.9 0.1
v 0.5 0.9 0.1
v -0.3 0.9 0
v -0.2 0.9 0
v 0.4 0.9 0
v 0.5 0.9 0
v -0.1 1.1 0.1
v 0.2 1.1 0.1
v 0.5 1.1 0.1
v 0.6 1.1 0.1
v -0.1 1.1 0
v 0.2 1.1 0
v 0.5 1.1 0
v 0.6 1.1 0
v -0.6 1.2 0.1
v -0.5 1.2 0.1
v 0.2 1.2 0.1
v 0.5 1.2 0.1
v -0.6 1.2 0
v -0.5 1.2 0
v 0.2 1.2 0
v 0.5 1.2 0
v -0.7 1.3 0.1
v -0.6 1.3 0.1
v 0.6 1.3 0.1
v 0.7 1.3 0.1
v -0.7 1.3 0
v -0.6 1.3 0
v 0.6 1.3 0
v 0.7 1.3 0
v -0.8 1.4 0.1
v -0.7 1.4 0.1
v -0.8 1.4 0
v -0.7 1.4 0
v -0.5 0.2 0.1
v -0.4 0.2 0.1
v -0.5 0.2 0
v -0.4 0.2 0
v -0.4 0.3 0.1
v -0.2 0.3 0.1
v -0.4 0.3 0
v -0.2 0.3 0
v -0.2 0.4 0.1
v -0.1 0.4 0.1
v -0.2 0.4 0
v -0.1 0.4 0
v -0.8 0.5 0.1
v -0.7 0.5 0.1
v -0.1 0.5 0.1
v 0.1 0.5 0.1
v -0.8 0.5 0
v -0.7 0.5 0
v -0.1 0.5 0
v 0.1 0.5 0
v 0.1 0.7 0.1
v 0.2 0.7 0.1
v 0.1 0.7 0
v 0.2 0.7 0
v -0.7 0.8 0.1
v -0.6 0.8 0.1
v 0 0.8 0.1
v 0.1 0.8 0.1
v 0.2 0.8 0.1
v 0.3 0.8 0.1
v -0.7 0.8 0
v -0.6 0.8 0
v 0 0.8 0
v 0.1 0.8 0
v 0.2 0.8 0
v 0.3 0.8 0
v -0.1 0.9 0.1
v 0 0.9 0.1
v 0.3 0.9 0.1
v 0.4 0.9 0.1
v -0.1 0.9 0
v 0 0.9 0
v 0.3 0.9 0
v 0.4 0.9 0
v -0.6 1 0.1
v -0.5 1 0.1
v -0.6 1 0
v -0.5 1 0
v 0.4 1.1 0.1
v 0.5 1.1 0.1
v 0.4 1.1 0
v 0.5 1.1 0
v -0.4 1.2 0.1
v -0.3 1.2 0.1
v -0.4 1.2 0
v -0.3 1.2 0
v -0.5 1.3 0.1
v -0.4 1.3 0.1
v -0.3 1.3 0.1
v -0.1 1.3 0.1
v -0.5 1.3 0
v -0.4 1.3 0
v -0.3 1.3 0
v -0.1 1.3 0
v -0.6 1.4 0.1
v -0.5 1.4 0.1
v -0.1 1.4 0.1
v 0.2 1.4 0.1
v 0.6 1.4 0.1
v 0.7 1.4 0.1
v -0.6 1.4 0
v -0.5 1.4 0
v -0.1 1.4 0
v 0.2 1.4 0
v 0.6 1.4 0
v 0.7 1.4 0
v -0.7 1.5 0.1
v -0.6 1.5 0.1
v 0.2 1.5 0.1
v 0.6 1.5 0.1
v -0.7 1.5 0
v -0.6 1.5 0
v 0.2 1.5 0
v 0.6 1.5 0
v -0.8 1.6 0.1
v -0.7 1.6 0.1
v -0.8 1.6 0
v -0.7 1.6 0

# faces
f 3/4/1 2/4/1 1/4/1
f 4/4/1 2/4/1 3/4/1
f 7/3/1 6/3/1 5/3/1
f 8/3/1 6/3/1 7/3/1
f 9/2/1 8/2/1 7/2/1
f 10/2/1 8/2/1 9/2/1
f 13/7/1 12/7/1 11/7/1
f 14/7/1 12/7/1 13/7/1
f 17/4/1 16/4/1 15/4/1
f 18/4/1 16/4/1 17/4/1
f 21/7/1 20/7/1 19/7/1
f 22/7/1 20/7/1 21/7/1
f 25/4/1 24/4/1 23/4/1
f 26/4/1 24/4/1 25/4/1
f 29/7/1 28/7/1 27/7/1
f 30/7/1 28/7/1 29/7/1
f 33/4/1 32/4/1 31/4/1
f 34/4/1 32/4/1 33/4/1
f 35/7/1 34/7/1 33/7/1
f 36/7/1 34/7/1 35/7/1
f 39/10/1 38/10/1 37/10/1
f 40/10/1 38/10/1 39/10/1
f 43/4/1 42/4/1 41/4/1
f 44/4/1 42/4/1 43/4/1
f 47/10/1 46/10/1 45/10/1
f 48/10/1 46/10/1 47/10/1
f 51/1/1 50/1/1 49/1/1
f 52/1/1 50/1/1 51/1/1
f 55/10/1 54/10/1 53/10/1
f 56/10/1 54/10/1 55/10/1
f 59/1/1 58/1/1 57/1/1
f 60/1/1 58/1/1 59/1/1
f 63/4/1 62/4/1 61/4/1
f 64/4/1 62/4/1 63/4/1
f 67/1/1 66/1/1 65/1/1
f 68/1/1 66/1/1 67/1/1
f 71/10/1 70/10/1 69/10/1
f 72/10/1 70/10/1 71/10/1
f 75/10/1 74/10/1 73/10/1
f 76/10/1 74/10/1 75/10/1
f 79/4/1 78/4/1 77/4/1
f 80/4/1 78/4/1 79/4/1
f 83/10/1 82/10/1 81/10/1
f 84/10/1 82/10/1 83/10/1
f 87/10/1 86/10/1 85/10/1
f 88/10/1 86/10/1 87/10/1
f 91/10/1 90/10/1 89/10/1
f 92/10/1 90/10/1 91/10/1
f 93/2/2 94/2/2 95/2/2
f 95/2/2 94/2/2 96/2/2
f 97/7/2 98/7/2 99/7/2
f 99/7/2 98/7/2 100/7/2
f 101/2/2 102/2/2 103/2/2
f 103/2/2 102/2/2 104/2/2
f 105/7/2 106/7/2 107/7/2
f 107/7/2 106/7/2 108/7/2
f 109/5/2 110/5/2 111/5/2
f 111/5/2 110/5/2 112/5/2
f 113/10/2 114/10/2 115/10/2
f 115/10/2 114/10/2 116/10/2
f 117/7/2 118/7/2 119/7/2
f 119/7/2 118/7/2 120/7/2
f 121/5/2 122/5/2 123/5/2
f 123/5/2 122/5/2 124/5/2
f 125/8/2 126/8/2 127/8/2
f 127/8/2 126/8/2 128/8/2
f 129/10/2 130/10/2 131/10/2
f 131/10/2 130/10/2 132/10/2
f 133/10/2 134/10/2 135/10/2
f 135/10/2 134/10/2 136/10/2
f 137/5/2 138/5/2 139/5/2
f 139/5/2 138/5/2 140/5/2
f 139/8/2 140/8/2 141/8/2
f 141/8/2 140/8/2 142/8/2
f 143/5/2 144/5/2 145/5/2
f 145/5/2 144/5/2 146/5/2
f 147/10/2 148/10/2 149/10/2
f 149/10/2 148/10/2 150/10/2
f 151/5/2 152/5/2 153/5/2
f 153/5/2 152/5/2 154/5/2
f 155/10/2 156/10/2 157/10/2
f 157/10/2 156/10/2 158/10/2
f 159/7/2 160/7/2 161/7/2
f 161/7/2 160/7/2 162/7/2
f 163/10/2 164/10/2 165/10/2
f 165/10/2 164/10/2 166/10/2
f 167/10/2 168/10/2 169/10/2
f 169/10/2 168/10/2 170/10/2
f 171/10/2 172/10/2 173/10/2
f 173/10/2 172/10/2 174/10/2
f 175/10/2 176/10/2 177/10/2
f 177/10/2 176/10/2 178/10/2
f 177/7/2 178/7/2 179/7/2
f 179/7/2 178/7/2 180/7/2
f 181/4/2 182/4/2 183/4/2
f 183/4/2 182/4/2 184/4/2
f 185/7/2 186/7/2 187/7/2
f 187/7/2 186/7/2 188/7/2
f 195/4/3 190/4/3 189/4/3
f 196/4/3 190/4/3 195/4/3
f 197/4/3 190/4/3 196/4/3
f 198/4/3 190/4/3 197/4/3
f 201/3/3 192/3/3 191/3/3
f 202/2/3 193/2/3 192/2/3
f 202/3/3 192/3/3 201/3/3
f 203/2/3 193/2/3 202/2/3
f 204/7/3 195/7/3 194/7/3
f 205/5/3 196/5/3 195/5/3
f 205/7/3 195/7/3 204/7/3
f 206/6/3 197/6/3 196/6/3
f 206/5/3 196/5/3 205/5/3
f 207/5/3 198/5/3 197/5/3
f 207/6/3 197/6/3 206/6/3
f 208/4/3 199/4/3 198/4/3
f 208/5/3 198/5/3 207/5/3
f 209/4/3 199/4/3 208/4/3
f 210/4/3 199/4/3 209/4/3
f 211/4/3 199/4/3 210/4/3
f 214/7/3 201/7/3 200/7/3
f 215/2/3 202/2/3 201/2/3
f 215/7/3 201/7/3 214/7/3
f 216/2/3 202/2/3 215/2/3
f 217/7/3 207/7/3 206/7/3
f 217/7/3 206/7/3 205/7/3
f 217/7/3 208/7/3 207/7/3
f 218/7/3 208/7/3 217/7/3
f 219/5/3 209/5/3 208/5/3
f 219/7/3 208/7/3 218/7/3
f 220/6/3 210/6/3 209/6/3
f 220/5/3 209/5/3 219/5/3
f 221/5/3 211/5/3 210/5/3
f 221/6/3 210/6/3 220/6/3
f 222/4/3 212/4/3 211/4/3
f 222/5/3 211/5/3 221/5/3
f 223/4/3 212/4/3 222/4/3
f 224/4/3 212/4/3 223/4/3
f 226/7/3 214/7/3 213/7/3
f 227/5/3 215/5/3 214/5/3
f 227/7/3 214/7/3 226/7/3
f 228/5/3 215/5/3 227/5/3
f 229/10/3 218/10/3 217/10/3
f 230/10/3 218/10/3 229/10/3
f 232/7/3 221/7/3 220/7/3
f 232/7/3 220/7/3 219/7/3
f 232/7/3 222/7/3 221/7/3
f 233/6/3 223/6/3 222/6/3
f 233/7/3 222/7/3 232/7/3
f 234/8/3 224/8/3 223/8/3
f 234/6/3 223/6/3 233/6/3
f 235/4/3 225/4/3 224/4/3
f 235/8/3 224/8/3 234/8/3
f 236/7/3 226/7/3 225/7/3
f 236/4/3 225/4/3 235/4/3
f 237/5/3 227/5/3 226/5/3
f 237/7/3 226/7/3 236/7/3
f 238/5/3 227/5/3 237/5/3
f 239/8/3 234/8/3 233/8/3
f 240/9/3 235/9/3 234/9/3
f 240/8/3 234/8/3 239/8/3
f 241/1/3 236/1/3 235/1/3
f 241/9/3 235/9/3 240/9/3
f 242/5/3 237/5/3 236/5/3
f 242/1/3 236/1/3 241/1/3
f 243/5/3 237/5/3 242/5/3
f 245/10/3 231/10/3 230/10/3
f 246/10/3 231/10/3 245/10/3
f 249/1/3 241/1/3 240/1/3
f 250/5/3 242/5/3 241/5/3
f 250/1/3 241/1/3 249/1/3
f 251/8/3 243/8/3 242/8/3
f 251/5/3 242/5/3 250/5/3
f 252/4/3 244/4/3 243/4/3
f 252/8/3 243/8/3 251/8/3
f 253/10/3 247/10/3 246/10/3
f 254/10/3 247/10/3 253/10/3
f 257/1/3 249/1/3 248/1/3
f 258/5/3 250/5/3 249/5/3
f 258/1/3 249/1/3 257/1/3
f 259/8/3 251/8/3 250/8/3
f 259/5/3 250/5/3 258/5/3
f 260/6/3 252/6/3 251/6/3
f 260/8/3 251/8/3 259/8/3
f 261/4/3 244/4/3 252/4/3
f 261/6/3 252/6/3 260/6/3
f 262/4/3 244/4/3 261/4/3
f 265/1/3 257/1/3 256/1/3
f 266/5/3 258/5/3 257/5/3
f 266/1/3 257/1/3 265/1/3
f 267/5/3 258/5/3 266/5/3
f 268/5/3 262/5/3 261/5/3
f 268/7/3 261/7/3 260/7/3
f 269/4/3 263/4/3 262/4/3
f 269/5/3 262/5/3 268/5/3
f 270/10/3 255/10/3 254/10/3
f 271/10/3 255/10/3 270/10/3
f 272/1/3 265/1/3 264/1/3
f 273/5/3 266/5/3 265/5/3
f 273/1/3 265/1/3 272/1/3
f 274/5/3 266/5/3 273/5/3
f 275/7/3 268/7/3 260/7/3
f 275/6/3 269/6/3 268/6/3
f 276/4/3 263/4/3 269/4/3
f 276/6/3 269/6/3 275/6/3
f 277/10/3 272/10/3 271/10/3
f 278/5/3 273/5/3 272/5/3
f 278/10/3 272/10/3 277/10/3
f 279/5/3 273/5/3 278/5/3
f 281/7/3 275/7/3 260/7/3
f 282/5/3 276/5/3 275/5/3
f 282/7/3 275/7/3 281/7/3
f 283/4/3 263/4/3 276/4/3
f 283/5/3 276/5/3 282/5/3
f 284/4/3 263/4/3 283/4/3
f 286/10/3 280/10/3 279/10/3
f 286/10/3 279/10/3 278/10/3
f 287/10/3 280/10/3 286/10/3
f 289/7/3 283/7/3 282/7/3
f 289/5/3 284/5/3 283/5/3
f 290/4/3 285/4/3 284/4/3
f 290/5/3 284/5/3 289/5/3
f 291/10/3 288/10/3 287/10/3
f 292/10/3 288/10/3 291/10/3
f 294/10/3 293/10/3 292/10/3
f 295/10/3 293/10/3 294/10/3
f 296/7/3 289/7/3 282/7/3
f 297/6/3 290/6/3 289/6/3
f 297/7/3 289/7/3 296/7/3
f 298/4/3 285/4/3 290/4/3
f 298/6/3 290/6/3 297/6/3
f 299/10/3 296/10/3 295/10/3
f 300/7/3 297/7/3 296/7/3
f 300/10/3 296/10/3 299/10/3
f 301/5/3 298/5/3 297/5/3
f 301/7/3 297/7/3 300/7/3
f 302/4/3 285/4/3 298/4/3
f 302/5/3 298/5/3 301/5/3
f 303/4/3 285/4/3 302/4/3
f 304/7/3 302/7/3 301/7/3
f 305/7/3 302/7/3 304/7/3
f 306/4/4 307/4/4 312/4/4
f 312/4/4 307/4/4 313/4/4
f 313/4/4 307/4/4 314/4/4
f 314/4/4 307/4/4 315/4/4
f 308/3/4 309/3/4 318/3/4
f 309/2/4 310/2/4 319/2/4
f 318/3/4 309/3/4 319/3/4
f 319/2/4 310/2/4 320/2/4
f 311/7/4 312/7/4 321/7/4
f 312/5/4 313/5/4 322/5/4
f 321/7/4 312/7/4 322/7/4
f 313/6/4 314/6/4 323/6/4
f 322/5/4 313/5/4 323/5/4
f 314/5/4 315/5/4 324/5/4
f 323/6/4 314/6/4 324/6/4
f 315/4/4 316/4/4 325/4/4
f 324/5/4 315/5/4 325/5/4
f 325/4/4 316/4/4 326/4/4
f 326/4/4 316/4/4 327/4/4
f 327/4/4 316/4/4 328/4/4
f 317/7/4 318/7/4 331/7/4
f 318/2/4 319/2/4 332/2/4
f 331/7/4 318/7/4 332/7/4
f 332/2/4 319/2/4 333/2/4
f 323/7/4 324/7/4 334/7/4
f 322/7/4 323/7/4 334/7/4
f 324/7/4 325/7/4 334/7/4
f 334/7/4 325/7/4 335/7/4
f 325/5/4 326/5/4 336/5/4
f 335/7/4 325/7/4 336/7/4
f 326/6/4 327/6/4 337/6/4
f 336/5/4 326/5/4 337/5/4
f 327/5/4 328/5/4 338/5/4
f 337/6/4 327/6/4 338/6/4
f 328/4/4 329/4/4 339/4/4
f 338/5/4 328/5/4 339/5/4
f 339/4/4 329/4/4 340/4/4
f 340/4/4 329/4/4 341/4/4
f 330/7/4 331/7/4 343/7/4
f 331/5/4 332/5/4 344/5/4
f 343/7/4 331/7/4 344/7/4
f 344/5/4 332/5/4 345/5/4
f 334/10/4 335/10/4 346/10/4
f 346/10/4 335/10/4 347/10/4
f 337/7/4 338/7/4 349/7/4
f 336/7/4 337/7/4 349/7/4
f 338/7/4 339/7/4 349/7/4
f 339/6/4 340/6/4 350/6/4
f 349/7/4 339/7/4 350/7/4
f 340/8/4 341/8/4 351/8/4
f 350/6/4 340/6/4 351/6/4
f 341/4/4 342/4/4 352/4/4
f 351/8/4 341/8/4 352/8/4
f 342/7/4 343/7/4 353/7/4
f 352/4/4 342/4/4 353/4/4
f 343/5/4 344/5/4 354/5/4
f 353/7/4 343/7/4 354/7/4
f 354/5/4 344/5/4 355/5/4
f 350/8/4 351/8/4 356/8/4
f 351/9/4 352/9/4 357/9/4
f 356/8/4 351/8/4 357/8/4
f 352/1/4 353/1/4 358/1/4
f 357/9/4 352/9/4 358/9/4
f 353/5/4 354/5/4 359/5/4
f 358/1/4 353/1/4 359/1/4
f 359/5/4 354/5/4 360/5/4
f 347/10/4 348/10/4 362/10/4
f 362/10/4 348/10/4 363/10/4
f 357/1/4 358/1/4 366/1/4
f 358/5/4 359/5/4 367/5/4
f 366/1/4 358/1/4 367/1/4
f 359/8/4 360/8/4 368/8/4
f 367/5/4 359/5/4 368/5/4
f 360/4/4 361/4/4 369/4/4
f 368/8/4 360/8/4 369/8/4
f 363/10/4 364/10/4 370/10/4
f 370/10/4 364/10/4 371/10/4
f 365/1/4 366/1/4 374/1/4
f 366/5/4 367/5/4 375/5/4
f 374/1/4 366/1/4 375/1/4
f 367/8/4 368/8/4 376/8/4
f 375/5/4 367/5/4 376/5/4
f 368/6/4 369/6/4 377/6/4
f 376/8/4 368/8/4 377/8/4
f 369/4/4 361/4/4 378/4/4
f 377/6/4 369/6/4 378/6/4
f 378/4/4 361/4/4 379/4/4
f 373/1/4 374/1/4 382/1/4
f 374/5/4 375/5/4 383/5/4
f 382/1/4 374/1/4 383/1/4
f 383/5/4 375/5/4 384/5/4
f 378/5/4 379/5/4 385/5/4
f 377/7/4 378/7/4 385/7/4
f 379/4/4 380/4/4 386/4/4
f 385/5/4 379/5/4 386/5/4
f 371/10/4 372/10/4 387/10/4
f 387/10/4 372/10/4 388/10/4
f 381/1/4 382/1/4 389/1/4
f 382/5/4 383/5/4 390/5/4
f 389/1/4 382/1/4 390/1/4
f 390/5/4 383/5/4 391/5/4
f 377/7/4 385/7/4 392/7/4
f 385/6/4 386/6/4 392/6/4
f 386/4/4 380/4/4 393/4/4
f 392/6/4 386/6/4 393/6/4
f 388/10/4 389/10/4 394/10/4
f 389/5/4 390/5/4 395/5/4
f 394/10/4 389/10/4 395/10/4
f 395/5/4 390/5/4 396/5/4
f 377/7/4 392/7/4 398/7/4
f 392/5/4 393/5/4 399/5/4
f 398/7/4 392/7/4 399/7/4
f 393/4/4 380/4/4 400/4/4
f 399/5/4 393/5/4 400/5/4
f 400/4/4 380/4/4 401/4/4
f 396/10/4 397/10/4 403/10/4
f 395/10/4 396/10/4 403/10/4
f 403/10/4 397/10/4 404/10/4
f 399/7/4 400/7/4 406/7/4
f 400/5/4 401/5/4 406/5/4
f 401/4/4 402/4/4 407/4/4
f 406/5/4 401/5/4 407/5/4
f 404/10/4 405/10/4 408/10/4
f 408/10/4 405/10/4 409/10/4
f 409/10/4 410/10/4 411/10/4
f 411/10/4 410/10/4 412/10/4
f 399/7/4 406/7/4 413/7/4
f 406/6/4 407/6/4 414/6/4
f 413/7/4 406/7/4 414/7/4
f 407/4/4 402/4/4 415/4/4
f 414/6/4 407/6/4 415/6/4
f 412/10/4 413/10/4 416/10/4
f 413/7/4 414/7/4 417/7/4
f 416/10/4 413/10/4 417/10/4
f 414/5/4 415/5/4 418/5/4
f 417/7/4 414/7/4 418/7/4
f 415/4/4 402/4/4 419/4/4
f 418/5/4 415/5/4 419/5/4
f 419/4/4 402/4/4 420/4/4
f 418/7/4 419/7/4 421/7/4
f 421/7/4 419/7/4 422/7/4
f 425/7/5 424/7/5 423/7/5
f 426/7/5 424/7/5 425/7/5
f 432/4/5 428/4/5 427/4/5
f 433/4/5 428/4/5 432/4/5
f 434/7/5 430/7/5 429/7/5
f 435/10/5 431/10/5 430/10/5
f 435/7/5 430/7/5 434/7/5
f 436/10/5 431/10/5 435/10/5
f 439/10/5 438/10/5 437/10/5
f 440/10/5 438/10/5 439/10/5
f 443/10/5 442/10/5 441/10/5
f 444/10/5 442/10/5 443/10/5
f 447/10/5 446/10/5 445/10/5
f 448/10/5 446/10/5 447/10/5
f 453/7/5 450/7/5 449/7/5
f 454/7/5 450/7/5 453/7/5
f 455/10/5 452/10/5 451/10/5
f 456/10/5 452/10/5 455/10/5
f 461/1/5 458/1/5 457/1/5
f 462/1/5 458/1/5 461/1/5
f 463/10/5 460/10/5 459/10/5
f 464/10/5 460/10/5 463/10/5
f 467/1/5 466/1/5 465/1/5
f 468/1/5 466/1/5 467/1/5
f 475/8/5 470/8/5 469/8/5
f 476/8/5 470/8/5 475/8/5
f 477/1/5 472/1/5 471/1/5
f 478/1/5 472/1/5 477/1/5
f 479/10/5 474/10/5 473/10/5
f 480/10/5 474/10/5 479/10/5
f 485/1/5 482/1/5 481/1/5
f 486/1/5 482/1/5 485/1/5
f 487/10/5 484/10/5 483/10/5
f 488/10/5 484/10/5 487/10/5
f 493/7/5 490/7/5 489/7/5
f 494/7/5 490/7/5 493/7/5
f 495/10/5 492/10/5 491/10/5
f 496/10/5 492/10/5 495/10/5
f 501/7/5 498/7/5 497/7/5
f 502/7/5 498/7/5 501/7/5
f 503/7/5 500/7/5 499/7/5
f 504/7/5 500/7/5 503/7/5
f 509/7/5 506/7/5 505/7/5
f 510/7/5 506/7/5 509/7/5
f 511/7/5 508/7/5 507/7/5
f 512/7/5 508/7/5 511/7/5
f 515/3/5 514/3/5 513/3/5
f 516/3/5 514/3/5 515/3/5
f 517/10/6 518/10/6 519/10/6
f 519/10/6 518/10/6 520/10/6
f 521/10/6 522/10/6 523/10/6
f 523/10/6 522/10/6 524/10/6
f 525/10/6 526/10/6 527/10/6
f 527/10/6 526/10/6 528/10/6
f 529/4/6 530/4/6 533/4/6
f 533/4/6 530/4/6 534/4/6
f 531/10/6 532/10/6 535/10/6
f 535/10/6 532/10/6 536/10/6
f 537/5/6 538/5/6 539/5/6
f 539/5/6 538/5/6 540/5/6
f 541/4/6 542/4/6 547/4/6
f 547/4/6 542/4/6 548/4/6
f 543/5/6 544/5/6 549/5/6
f 549/5/6 544/5/6 550/5/6
f 545/10/6 546/10/6 551/10/6
f 551/10/6 546/10/6 552/10/6
f 553/5/6 554/5/6 557/5/6
f 557/5/6 554/5/6 558/5/6
f 555/10/6 556/10/6 559/10/6
f 559/10/6 556/10/6 560/10/6
f 561/4/6 562/4/6 563/4/6
f 563/4/6 562/4/6 564/4/6
f 565/10/6 566/10/6 567/10/6
f 567/10/6 566/10/6 568/10/6
f 569/5/6 570/5/6 571/5/6
f 571/5/6 570/5/6 572/5/6
f 573/5/6 574/5/6 577/5/6
f 577/5/6 574/5/6 578/5/6
f 575/4/6 576/4/6 579/4/6
f 579/4/6 576/4/6 580/4/6
f 581/5/6 582/5/6 587/5/6
f 587/5/6 582/5/6 588/5/6
f 583/4/6 584/4/6 589/4/6
f 589/4/6 584/4/6 590/4/6
f 585/7/6 586/7/6 591/7/6
f 591/7/6 586/7/6 592/7/6
f 593/2/6 594/2/6 597/2/6
f 597/2/6 594/2/6 598/2/6
f 595/4/6 596/4/6 599/4/6
f 599/4/6 596/4/6 600/4/6
f 601/2/6 602/2/6 603/2/6
f 603/2/6 602/2/6 604/2/6
