# MagicaVoxel @ Ephtracy

# group
o 

# material
mtllib Bow-0.mtl
usemtl palette

# normals
vn -1 0 0
vn 1 0 0
vn 0 0 1
vn 0 0 -1
vn 0 -1 0
vn 0 1 0

# texcoords
vt 0.939453 0.5
vt 0.943359 0.5
vt 0.947266 0.5
vt 0.970703 0.5
vt 0.974609 0.5
vt 0.978516 0.5
vt 0.982422 0.5
vt 0.986328 0.5
vt 0.990234 0.5
vt 0.994141 0.5

# verts
v -0.8 0.2 0.1
v -0.8 0.2 0
v -0.8 0.9 0.1
v -0.8 0.9 0
v -0.7 0.1 0.1
v -0.7 0.1 0
v -0.7 0.2 0.1
v -0.7 0.2 0
v -0.7 0.9 0.1
v -0.7 0.9 0
v -0.7 1.1 0.1
v -0.7 1.1 0
v -0.7 1.3 0.1
v -0.7 1.3 0
v -0.7 1.4 0.1
v -0.7 1.4 0
v -0.7 1.5 0.1
v -0.7 1.5 0
v -0.6 1.1 0.1
v -0.6 1.1 0
v -0.6 1.2 0.1
v -0.6 1.2 0
v -0.6 1.3 0.1
v -0.6 1.3 0
v -0.4 1.3 0.1
v -0.4 1.3 0
v -0.4 1.4 0.1
v -0.4 1.4 0
v -0.3 0.3 0.1
v -0.3 0.3 0
v -0.3 0.4 0.1
v -0.3 0.4 0
v -0.3 0.9 0.1
v -0.3 0.9 0
v -0.3 1 0.1
v -0.3 1 0
v -0.2 0.8 0.1
v -0.2 0.8 0
v -0.2 0.9 0.1
v -0.2 0.9 0
v -0.2 1.4 0.1
v -0.2 1.4 0
v -0.2 1.5 0.1
v -0.2 1.5 0
v -0.1 0.7 0.1
v -0.1 0.7 0
v -0.1 0.8 0.1
v -0.1 0.8 0
v 0 0.6 0.1
v 0 0.6 0
v 0 0.7 0.1
v 0 0.7 0
v 0.1 0.4 0.1
v 0.1 0.4 0
v 0.1 0.5 0.1
v 0.1 0.5 0
v 0.1 0.6 0.1
v 0.1 0.6 0
v 0.3 0.6 0.1
v 0.3 0.6 0
v 0.3 1 0.1
v 0.3 1 0
v 0.4 1 0.1
v 0.4 1 0
v 0.4 1.2 0.1
v 0.4 1.2 0
v -0.6 0.1 0.1
v -0.6 0.1 0
v -0.6 0.2 0.1
v -0.6 0.2 0
v -0.6 1.4 0.1
v -0.6 1.4 0
v -0.6 1.5 0.1
v -0.6 1.5 0
v -0.5 0.3 0.1
v -0.5 0.3 0
v -0.5 0.9 0.1
v -0.5 0.9 0
v -0.5 1.3 0.1
v -0.5 1.3 0
v -0.5 1.4 0.1
v -0.5 1.4 0
v -0.4 0.9 0.1
v -0.4 0.9 0
v -0.4 1 0.1
v -0.4 1 0
v -0.3 0.2 0.1
v -0.3 0.2 0
v -0.3 0.3 0.1
v -0.3 0.3 0
v -0.2 1 0.1
v -0.2 1 0
v -0.2 1.1 0.1
v -0.2 1.1 0
v -0.2 1.2 0.1
v -0.2 1.2 0
v -0.1 0.9 0.1
v -0.1 0.9 0
v -0.1 1 0.1
v -0.1 1 0
v 0 0.8 0.1
v 0 0.8 0
v 0 0.9 0.1
v 0 0.9 0
v 0.1 0.3 0.1
v 0.1 0.3 0
v 0.1 0.4 0.1
v 0.1 0.4 0
v 0.1 0.7 0.1
v 0.1 0.7 0
v 0.1 0.8 0.1
v 0.1 0.8 0
v 0.2 0.4 0.1
v 0.2 0.4 0
v 0.2 0.5 0.1
v 0.2 0.5 0
v 0.2 0.6 0.1
v 0.2 0.6 0
v 0.2 0.7 0.1
v 0.2 0.7 0
v 0.3 0.5 0.1
v 0.3 0.5 0
v 0.3 0.6 0.1
v 0.3 0.6 0
v 0.4 0.6 0.1
v 0.4 0.6 0
v 0.4 1 0.1
v 0.4 1 0
v 0.5 1 0.1
v 0.5 1 0
v 0.5 1.2 0.1
v 0.5 1.2 0
v 0.5 1.3 0.1
v 0.5 1.3 0
v 0.5 1.4 0.1
v 0.5 1.4 0
v 0.5 1.5 0.1
v 0.5 1.5 0
v 0.6 1.3 0.1
v 0.6 1.3 0
v 0.6 1.4 0.1
v 0.6 1.4 0
v -0.8 0.2 0.1
v -0.8 0.9 0.1
v -0.7 0.1 0.1
v -0.7 0.2 0.1
v -0.7 0.3 0.1
v -0.7 0.5 0.1
v -0.7 0.7 0.1
v -0.7 0.8 0.1
v -0.7 0.9 0.1
v -0.7 1.1 0.1
v -0.7 1.3 0.1
v -0.7 1.4 0.1
v -0.7 1.5 0.1
v -0.6 0.1 0.1
v -0.6 0.2 0.1
v -0.6 0.3 0.1
v -0.6 0.5 0.1
v -0.6 0.7 0.1
v -0.6 0.8 0.1
v -0.6 0.9 0.1
v -0.6 1 0.1
v -0.6 1.1 0.1
v -0.6 1.2 0.1
v -0.6 1.3 0.1
v -0.6 1.4 0.1
v -0.6 1.5 0.1
v -0.5 0.2 0.1
v -0.5 0.3 0.1
v -0.5 0.9 0.1
v -0.5 1 0.1
v -0.5 1.1 0.1
v -0.5 1.2 0.1
v -0.5 1.3 0.1
v -0.5 1.4 0.1
v -0.4 0.9 0.1
v -0.4 1 0.1
v -0.4 1.1 0.1
v -0.4 1.2 0.1
v -0.4 1.3 0.1
v -0.4 1.4 0.1
v -0.3 0.2 0.1
v -0.3 0.3 0.1
v -0.3 0.4 0.1
v -0.3 0.9 0.1
v -0.3 1 0.1
v -0.3 1.1 0.1
v -0.3 1.2 0.1
v -0.3 1.3 0.1
v -0.2 0.8 0.1
v -0.2 0.9 0.1
v -0.2 1 0.1
v -0.2 1.1 0.1
v -0.2 1.2 0.1
v -0.2 1.3 0.1
v -0.2 1.4 0.1
v -0.2 1.5 0.1
v -0.1 0.7 0.1
v -0.1 0.8 0.1
v -0.1 0.9 0.1
v -0.1 1 0.1
v -0.1 1.3 0.1
v -0.1 1.4 0.1
v 0 0.6 0.1
v 0 0.7 0.1
v 0 0.8 0.1
v 0 0.9 0.1
v 0 1.3 0.1
v 0 1.4 0.1
v 0.1 0.3 0.1
v 0.1 0.4 0.1
v 0.1 0.5 0.1
v 0.1 0.6 0.1
v 0.1 0.7 0.1
v 0.1 0.8 0.1
v 0.2 0.4 0.1
v 0.2 0.5 0.1
v 0.2 0.6 0.1
v 0.2 0.7 0.1
v 0.2 1.3 0.1
v 0.2 1.4 0.1
v 0.3 0.5 0.1
v 0.3 0.6 0.1
v 0.3 1 0.1
v 0.4 0.6 0.1
v 0.4 1 0.1
v 0.4 1.2 0.1
v 0.4 1.3 0.1
v 0.4 1.4 0.1
v 0.5 1 0.1
v 0.5 1.2 0.1
v 0.5 1.3 0.1
v 0.5 1.4 0.1
v 0.5 1.5 0.1
v 0.6 1.3 0.1
v 0.6 1.4 0.1
v -0.8 0.2 0
v -0.8 0.9 0
v -0.7 0.1 0
v -0.7 0.2 0
v -0.7 0.3 0
v -0.7 0.5 0
v -0.7 0.7 0
v -0.7 0.8 0
v -0.7 0.9 0
v -0.7 1.1 0
v -0.7 1.3 0
v -0.7 1.4 0
v -0.7 1.5 0
v -0.6 0.1 0
v -0.6 0.2 0
v -0.6 0.3 0
v -0.6 0.5 0
v -0.6 0.7 0
v -0.6 0.8 0
v -0.6 0.9 0
v -0.6 1 0
v -0.6 1.1 0
v -0.6 1.2 0
v -0.6 1.3 0
v -0.6 1.4 0
v -0.6 1.5 0
v -0.5 0.2 0
v -0.5 0.3 0
v -0.5 0.9 0
v -0.5 1 0
v -0.5 1.1 0
v -0.5 1.2 0
v -0.5 1.3 0
v -0.5 1.4 0
v -0.4 0.9 0
v -0.4 1 0
v -0.4 1.1 0
v -0.4 1.2 0
v -0.4 1.3 0
v -0.4 1.4 0
v -0.3 0.2 0
v -0.3 0.3 0
v -0.3 0.4 0
v -0.3 0.9 0
v -0.3 1 0
v -0.3 1.1 0
v -0.3 1.2 0
v -0.3 1.3 0
v -0.2 0.8 0
v -0.2 0.9 0
v -0.2 1 0
v -0.2 1.1 0
v -0.2 1.2 0
v -0.2 1.3 0
v -0.2 1.4 0
v -0.2 1.5 0
v -0.1 0.7 0
v -0.1 0.8 0
v -0.1 0.9 0
v -0.1 1 0
v -0.1 1.3 0
v -0.1 1.4 0
v 0 0.6 0
v 0 0.7 0
v 0 0.8 0
v 0 0.9 0
v 0 1.3 0
v 0 1.4 0
v 0.1 0.3 0
v 0.1 0.4 0
v 0.1 0.5 0
v 0.1 0.6 0
v 0.1 0.7 0
v 0.1 0.8 0
v 0.2 0.4 0
v 0.2 0.5 0
v 0.2 0.6 0
v 0.2 0.7 0
v 0.2 1.3 0
v 0.2 1.4 0
v 0.3 0.5 0
v 0.3 0.6 0
v 0.3 1 0
v 0.4 0.6 0
v 0.4 1 0
v 0.4 1.2 0
v 0.4 1.3 0
v 0.4 1.4 0
v 0.5 1 0
v 0.5 1.2 0
v 0.5 1.3 0
v 0.5 1.4 0
v 0.5 1.5 0
v 0.6 1.3 0
v 0.6 1.4 0
v -0.7 0.1 0.1
v -0.6 0.1 0.1
v -0.7 0.1 0
v -0.6 0.1 0
v -0.8 0.2 0.1
v -0.7 0.2 0.1
v -0.6 0.2 0.1
v -0.5 0.2 0.1
v -0.3 0.2 0.1
v -0.8 0.2 0
v -0.7 0.2 0
v -0.6 0.2 0
v -0.5 0.2 0
v -0.3 0.2 0
v -0.3 0.3 0.1
v 0.1 0.3 0.1
v -0.3 0.3 0
v 0.1 0.3 0
v 0.1 0.4 0.1
v 0.2 0.4 0.1
v 0.1 0.4 0
v 0.2 0.4 0
v 0.2 0.5 0.1
v 0.3 0.5 0.1
v 0.2 0.5 0
v 0.3 0.5 0
v 0 0.6 0.1
v 0.1 0.6 0.1
v 0.3 0.6 0.1
v 0.4 0.6 0.1
v 0 0.6 0
v 0.1 0.6 0
v 0.3 0.6 0
v 0.4 0.6 0
v -0.1 0.7 0.1
v 0 0.7 0.1
v -0.1 0.7 0
v 0 0.7 0
v -0.2 0.8 0.1
v -0.1 0.8 0.1
v -0.2 0.8 0
v -0.1 0.8 0
v -0.5 0.9 0.1
v -0.4 0.9 0.1
v -0.3 0.9 0.1
v -0.2 0.9 0.1
v -0.5 0.9 0
v -0.4 0.9 0
v -0.3 0.9 0
v -0.2 0.9 0
v -0.4 1 0.1
v -0.3 1 0.1
v 0.4 1 0.1
v 0.5 1 0.1
v -0.4 1 0
v -0.3 1 0
v 0.4 1 0
v 0.5 1 0
v -0.2 1.2 0.1
v 0.4 1.2 0.1
v -0.2 1.2 0
v 0.4 1.2 0
v -0.7 1.3 0.1
v -0.6 1.3 0.1
v 0.5 1.3 0.1
v 0.6 1.3 0.1
v -0.7 1.3 0
v -0.6 1.3 0
v 0.5 1.3 0
v 0.6 1.3 0
v -0.5 0.3 0.1
v -0.3 0.3 0.1
v -0.5 0.3 0
v -0.3 0.3 0
v -0.3 0.4 0.1
v 0.1 0.4 0.1
v -0.3 0.4 0
v 0.1 0.4 0
v 0.2 0.6 0.1
v 0.3 0.6 0.1
v 0.2 0.6 0
v 0.3 0.6 0
v 0.1 0.7 0.1
v 0.2 0.7 0.1
v 0.1 0.7 0
v 0.2 0.7 0
v 0 0.8 0.1
v 0.1 0.8 0.1
v 0 0.8 0
v 0.1 0.8 0
v -0.8 0.9 0.1
v -0.7 0.9 0.1
v -0.1 0.9 0.1
v 0 0.9 0.1
v -0.8 0.9 0
v -0.7 0.9 0
v -0.1 0.9 0
v 0 0.9 0
v -0.2 1 0.1
v -0.1 1 0.1
v 0.3 1 0.1
v 0.4 1 0.1
v -0.2 1 0
v -0.1 1 0
v 0.3 1 0
v 0.4 1 0
v -0.7 1.1 0.1
v -0.6 1.1 0.1
v -0.7 1.1 0
v -0.6 1.1 0
v -0.5 1.3 0.1
v -0.4 1.3 0.1
v -0.5 1.3 0
v -0.4 1.3 0
v -0.6 1.4 0.1
v -0.5 1.4 0.1
v -0.4 1.4 0.1
v -0.2 1.4 0.1
v 0.5 1.4 0.1
v 0.6 1.4 0.1
v -0.6 1.4 0
v -0.5 1.4 0
v -0.4 1.4 0
v -0.2 1.4 0
v 0.5 1.4 0
v 0.6 1.4 0
v -0.7 1.5 0.1
v -0.6 1.5 0.1
v -0.2 1.5 0.1
v 0.5 1.5 0.1
v -0.7 1.5 0
v -0.6 1.5 0
v -0.2 1.5 0
v 0.5 1.5 0

# faces
f 3/4/1 2/4/1 1/4/1
f 4/4/1 2/4/1 3/4/1
f 7/7/1 6/7/1 5/7/1
f 8/7/1 6/7/1 7/7/1
f 11/4/1 10/4/1 9/4/1
f 12/4/1 10/4/1 11/4/1
f 15/3/1 14/3/1 13/3/1
f 16/3/1 14/3/1 15/3/1
f 17/2/1 16/2/1 15/2/1
f 18/2/1 16/2/1 17/2/1
f 21/4/1 20/4/1 19/4/1
f 22/4/1 20/4/1 21/4/1
f 23/7/1 22/7/1 21/7/1
f 24/7/1 22/7/1 23/7/1
f 27/4/1 26/4/1 25/4/1
f 28/4/1 26/4/1 27/4/1
f 31/10/1 30/10/1 29/10/1
f 32/10/1 30/10/1 31/10/1
f 35/1/1 34/1/1 33/1/1
f 36/1/1 34/1/1 35/1/1
f 39/1/1 38/1/1 37/1/1
f 40/1/1 38/1/1 39/1/1
f 43/4/1 42/4/1 41/4/1
f 44/4/1 42/4/1 43/4/1
f 47/1/1 46/1/1 45/1/1
f 48/1/1 46/1/1 47/1/1
f 51/1/1 50/1/1 49/1/1
f 52/1/1 50/1/1 51/1/1
f 55/10/1 54/10/1 53/10/1
f 56/10/1 54/10/1 55/10/1
f 57/7/1 56/7/1 55/7/1
f 58/7/1 56/7/1 57/7/1
f 61/10/1 60/10/1 59/10/1
f 62/10/1 60/10/1 61/10/1
f 65/10/1 64/10/1 63/10/1
f 66/10/1 64/10/1 65/10/1
f 67/7/2 68/7/2 69/7/2
f 69/7/2 68/7/2 70/7/2
f 71/2/2 72/2/2 73/2/2
f 73/2/2 72/2/2 74/2/2
f 75/7/2 76/7/2 77/7/2
f 77/7/2 76/7/2 78/7/2
f 79/2/2 80/2/2 81/2/2
f 81/2/2 80/2/2 82/2/2
f 83/8/2 84/8/2 85/8/2
f 85/8/2 84/8/2 86/8/2
f 87/10/2 88/10/2 89/10/2
f 89/10/2 88/10/2 90/10/2
f 91/5/2 92/5/2 93/5/2
f 93/5/2 92/5/2 94/5/2
f 93/8/2 94/8/2 95/8/2
f 95/8/2 94/8/2 96/8/2
f 97/5/2 98/5/2 99/5/2
f 99/5/2 98/5/2 100/5/2
f 101/5/2 102/5/2 103/5/2
f 103/5/2 102/5/2 104/5/2
f 105/10/2 106/10/2 107/10/2
f 107/10/2 106/10/2 108/10/2
f 109/5/2 110/5/2 111/5/2
f 111/5/2 110/5/2 112/5/2
f 113/10/2 114/10/2 115/10/2
f 115/10/2 114/10/2 116/10/2
f 117/5/2 118/5/2 119/5/2
f 119/5/2 118/5/2 120/5/2
f 121/5/2 122/5/2 123/5/2
f 123/5/2 122/5/2 124/5/2
f 125/10/2 126/10/2 127/10/2
f 127/10/2 126/10/2 128/10/2
f 129/10/2 130/10/2 131/10/2
f 131/10/2 130/10/2 132/10/2
f 131/7/2 132/7/2 133/7/2
f 133/7/2 132/7/2 134/7/2
f 135/4/2 136/4/2 137/4/2
f 137/4/2 136/4/2 138/4/2
f 139/7/2 140/7/2 141/7/2
f 141/7/2 140/7/2 142/7/2
f 146/4/3 144/4/3 143/4/3
f 147/4/3 144/4/3 146/4/3
f 148/4/3 144/4/3 147/4/3
f 149/4/3 144/4/3 148/4/3
f 150/4/3 144/4/3 149/4/3
f 151/4/3 144/4/3 150/4/3
f 156/7/3 146/7/3 145/7/3
f 157/5/3 147/5/3 146/5/3
f 157/7/3 146/7/3 156/7/3
f 158/6/3 148/6/3 147/6/3
f 158/5/3 147/5/3 157/5/3
f 159/5/3 149/5/3 148/5/3
f 159/6/3 148/6/3 158/6/3
f 160/6/3 150/6/3 149/6/3
f 160/5/3 149/5/3 159/5/3
f 161/5/3 151/5/3 150/5/3
f 161/6/3 150/6/3 160/6/3
f 162/4/3 152/4/3 151/4/3
f 162/5/3 151/5/3 161/5/3
f 163/4/3 152/4/3 162/4/3
f 164/4/3 152/4/3 163/4/3
f 166/3/3 154/3/3 153/3/3
f 167/2/3 155/2/3 154/2/3
f 167/3/3 154/3/3 166/3/3
f 168/2/3 155/2/3 167/2/3
f 169/7/3 158/7/3 157/7/3
f 169/7/3 159/7/3 158/7/3
f 169/7/3 160/7/3 159/7/3
f 169/7/3 161/7/3 160/7/3
f 169/7/3 162/7/3 161/7/3
f 170/7/3 162/7/3 169/7/3
f 171/6/3 163/6/3 162/6/3
f 171/7/3 162/7/3 170/7/3
f 172/8/3 164/8/3 163/8/3
f 172/6/3 163/6/3 171/6/3
f 173/4/3 165/4/3 164/4/3
f 173/8/3 164/8/3 172/8/3
f 174/7/3 166/7/3 165/7/3
f 174/4/3 165/4/3 173/4/3
f 175/2/3 167/2/3 166/2/3
f 175/7/3 166/7/3 174/7/3
f 176/2/3 167/2/3 175/2/3
f 177/8/3 172/8/3 171/8/3
f 178/9/3 173/9/3 172/9/3
f 178/8/3 172/8/3 177/8/3
f 179/1/3 174/1/3 173/1/3
f 179/9/3 173/9/3 178/9/3
f 180/5/3 175/5/3 174/5/3
f 180/1/3 174/1/3 179/1/3
f 181/5/3 175/5/3 180/5/3
f 183/10/3 170/10/3 169/10/3
f 184/10/3 170/10/3 183/10/3
f 187/1/3 179/1/3 178/1/3
f 188/5/3 180/5/3 179/5/3
f 188/1/3 179/1/3 187/1/3
f 189/8/3 181/8/3 180/8/3
f 189/5/3 180/5/3 188/5/3
f 190/4/3 182/4/3 181/4/3
f 190/8/3 181/8/3 189/8/3
f 192/1/3 187/1/3 186/1/3
f 193/5/3 188/5/3 187/5/3
f 193/1/3 187/1/3 192/1/3
f 194/8/3 189/8/3 188/8/3
f 194/5/3 188/5/3 193/5/3
f 195/6/3 190/6/3 189/6/3
f 195/8/3 189/8/3 194/8/3
f 196/4/3 182/4/3 190/4/3
f 196/6/3 190/6/3 195/6/3
f 197/4/3 182/4/3 196/4/3
f 200/1/3 192/1/3 191/1/3
f 201/5/3 193/5/3 192/5/3
f 201/1/3 192/1/3 200/1/3
f 202/5/3 193/5/3 201/5/3
f 203/5/3 197/5/3 196/5/3
f 203/7/3 196/7/3 195/7/3
f 204/4/3 198/4/3 197/4/3
f 204/5/3 197/5/3 203/5/3
f 206/1/3 200/1/3 199/1/3
f 207/5/3 201/5/3 200/5/3
f 207/1/3 200/1/3 206/1/3
f 208/5/3 201/5/3 207/5/3
f 209/6/3 204/6/3 203/6/3
f 209/7/3 203/7/3 195/7/3
f 210/4/3 198/4/3 204/4/3
f 210/6/3 204/6/3 209/6/3
f 211/10/3 185/10/3 184/10/3
f 212/10/3 185/10/3 211/10/3
f 214/1/3 206/1/3 205/1/3
f 215/5/3 207/5/3 206/5/3
f 215/1/3 206/1/3 214/1/3
f 216/5/3 207/5/3 215/5/3
f 217/10/3 213/10/3 212/10/3
f 218/7/3 214/7/3 213/7/3
f 218/10/3 213/10/3 217/10/3
f 219/5/3 215/5/3 214/5/3
f 219/7/3 214/7/3 218/7/3
f 220/5/3 215/5/3 219/5/3
f 221/7/3 209/7/3 195/7/3
f 221/5/3 210/5/3 209/5/3
f 222/4/3 198/4/3 210/4/3
f 222/5/3 210/5/3 221/5/3
f 223/5/3 219/5/3 218/5/3
f 224/5/3 219/5/3 223/5/3
f 226/10/3 225/10/3 224/10/3
f 227/10/3 225/10/3 226/10/3
f 228/7/3 221/7/3 195/7/3
f 229/6/3 222/6/3 221/6/3
f 229/7/3 221/7/3 228/7/3
f 230/4/3 198/4/3 222/4/3
f 230/6/3 222/6/3 229/6/3
f 231/10/3 228/10/3 227/10/3
f 232/7/3 229/7/3 228/7/3
f 232/10/3 228/10/3 231/10/3
f 233/5/3 230/5/3 229/5/3
f 233/7/3 229/7/3 232/7/3
f 234/4/3 198/4/3 230/4/3
f 234/5/3 230/5/3 233/5/3
f 235/4/3 198/4/3 234/4/3
f 236/7/3 234/7/3 233/7/3
f 237/7/3 234/7/3 236/7/3
f 238/4/4 239/4/4 241/4/4
f 241/4/4 239/4/4 242/4/4
f 242/4/4 239/4/4 243/4/4
f 243/4/4 239/4/4 244/4/4
f 244/4/4 239/4/4 245/4/4
f 245/4/4 239/4/4 246/4/4
f 240/7/4 241/7/4 251/7/4
f 241/5/4 242/5/4 252/5/4
f 251/7/4 241/7/4 252/7/4
f 242/6/4 243/6/4 253/6/4
f 252/5/4 242/5/4 253/5/4
f 243/5/4 244/5/4 254/5/4
f 253/6/4 243/6/4 254/6/4
f 244/6/4 245/6/4 255/6/4
f 254/5/4 244/5/4 255/5/4
f 245/5/4 246/5/4 256/5/4
f 255/6/4 245/6/4 256/6/4
f 246/4/4 247/4/4 257/4/4
f 256/5/4 246/5/4 257/5/4
f 257/4/4 247/4/4 258/4/4
f 258/4/4 247/4/4 259/4/4
f 248/3/4 249/3/4 261/3/4
f 249/2/4 250/2/4 262/2/4
f 261/3/4 249/3/4 262/3/4
f 262/2/4 250/2/4 263/2/4
f 252/7/4 253/7/4 264/7/4
f 253/7/4 254/7/4 264/7/4
f 254/7/4 255/7/4 264/7/4
f 255/7/4 256/7/4 264/7/4
f 256/7/4 257/7/4 264/7/4
f 264/7/4 257/7/4 265/7/4
f 257/6/4 258/6/4 266/6/4
f 265/7/4 257/7/4 266/7/4
f 258/8/4 259/8/4 267/8/4
f 266/6/4 258/6/4 267/6/4
f 259/4/4 260/4/4 268/4/4
f 267/8/4 259/8/4 268/8/4
f 260/7/4 261/7/4 269/7/4
f 268/4/4 260/4/4 269/4/4
f 261/2/4 262/2/4 270/2/4
f 269/7/4 261/7/4 270/7/4
f 270/2/4 262/2/4 271/2/4
f 266/8/4 267/8/4 272/8/4
f 267/9/4 268/9/4 273/9/4
f 272/8/4 267/8/4 273/8/4
f 268/1/4 269/1/4 274/1/4
f 273/9/4 268/9/4 274/9/4
f 269/5/4 270/5/4 275/5/4
f 274/1/4 269/1/4 275/1/4
f 275/5/4 270/5/4 276/5/4
f 264/10/4 265/10/4 278/10/4
f 278/10/4 265/10/4 279/10/4
f 273/1/4 274/1/4 282/1/4
f 274/5/4 275/5/4 283/5/4
f 282/1/4 274/1/4 283/1/4
f 275/8/4 276/8/4 284/8/4
f 283/5/4 275/5/4 284/5/4
f 276/4/4 277/4/4 285/4/4
f 284/8/4 276/8/4 285/8/4
f 281/1/4 282/1/4 287/1/4
f 282/5/4 283/5/4 288/5/4
f 287/1/4 282/1/4 288/1/4
f 283/8/4 284/8/4 289/8/4
f 288/5/4 283/5/4 289/5/4
f 284/6/4 285/6/4 290/6/4
f 289/8/4 284/8/4 290/8/4
f 285/4/4 277/4/4 291/4/4
f 290/6/4 285/6/4 291/6/4
f 291/4/4 277/4/4 292/4/4
f 286/1/4 287/1/4 295/1/4
f 287/5/4 288/5/4 296/5/4
f 295/1/4 287/1/4 296/1/4
f 296/5/4 288/5/4 297/5/4
f 291/5/4 292/5/4 298/5/4
f 290/7/4 291/7/4 298/7/4
f 292/4/4 293/4/4 299/4/4
f 298/5/4 292/5/4 299/5/4
f 294/1/4 295/1/4 301/1/4
f 295/5/4 296/5/4 302/5/4
f 301/1/4 295/1/4 302/1/4
f 302/5/4 296/5/4 303/5/4
f 298/6/4 299/6/4 304/6/4
f 290/7/4 298/7/4 304/7/4
f 299/4/4 293/4/4 305/4/4
f 304/6/4 299/6/4 305/6/4
f 279/10/4 280/10/4 306/10/4
f 306/10/4 280/10/4 307/10/4
f 300/1/4 301/1/4 309/1/4
f 301/5/4 302/5/4 310/5/4
f 309/1/4 301/1/4 310/1/4
f 310/5/4 302/5/4 311/5/4
f 307/10/4 308/10/4 312/10/4
f 308/7/4 309/7/4 313/7/4
f 312/10/4 308/10/4 313/10/4
f 309/5/4 310/5/4 314/5/4
f 313/7/4 309/7/4 314/7/4
f 314/5/4 310/5/4 315/5/4
f 290/7/4 304/7/4 316/7/4
f 304/5/4 305/5/4 316/5/4
f 305/4/4 293/4/4 317/4/4
f 316/5/4 305/5/4 317/5/4
f 313/5/4 314/5/4 318/5/4
f 318/5/4 314/5/4 319/5/4
f 319/10/4 320/10/4 321/10/4
f 321/10/4 320/10/4 322/10/4
f 290/7/4 316/7/4 323/7/4
f 316/6/4 317/6/4 324/6/4
f 323/7/4 316/7/4 324/7/4
f 317/4/4 293/4/4 325/4/4
f 324/6/4 317/6/4 325/6/4
f 322/10/4 323/10/4 326/10/4
f 323/7/4 324/7/4 327/7/4
f 326/10/4 323/10/4 327/10/4
f 324/5/4 325/5/4 328/5/4
f 327/7/4 324/7/4 328/7/4
f 325/4/4 293/4/4 329/4/4
f 328/5/4 325/5/4 329/5/4
f 329/4/4 293/4/4 330/4/4
f 328/7/4 329/7/4 331/7/4
f 331/7/4 329/7/4 332/7/4
f 335/7/5 334/7/5 333/7/5
f 336/7/5 334/7/5 335/7/5
f 342/4/5 338/4/5 337/4/5
f 343/4/5 338/4/5 342/4/5
f 344/7/5 340/7/5 339/7/5
f 345/10/5 341/10/5 340/10/5
f 345/7/5 340/7/5 344/7/5
f 346/10/5 341/10/5 345/10/5
f 349/10/5 348/10/5 347/10/5
f 350/10/5 348/10/5 349/10/5
f 353/10/5 352/10/5 351/10/5
f 354/10/5 352/10/5 353/10/5
f 357/5/5 356/5/5 355/5/5
f 358/5/5 356/5/5 357/5/5
f 363/1/5 360/1/5 359/1/5
f 364/1/5 360/1/5 363/1/5
f 365/10/5 362/10/5 361/10/5
f 366/10/5 362/10/5 365/10/5
f 369/1/5 368/1/5 367/1/5
f 370/1/5 368/1/5 369/1/5
f 373/1/5 372/1/5 371/1/5
f 374/1/5 372/1/5 373/1/5
f 379/8/5 376/8/5 375/8/5
f 380/8/5 376/8/5 379/8/5
f 381/1/5 378/1/5 377/1/5
f 382/1/5 378/1/5 381/1/5
f 387/1/5 384/1/5 383/1/5
f 388/1/5 384/1/5 387/1/5
f 389/10/5 386/10/5 385/10/5
f 390/10/5 386/10/5 389/10/5
f 393/7/5 392/7/5 391/7/5
f 394/7/5 392/7/5 393/7/5
f 399/3/5 396/3/5 395/3/5
f 400/3/5 396/3/5 399/3/5
f 401/7/5 398/7/5 397/7/5
f 402/7/5 398/7/5 401/7/5
f 403/10/6 404/10/6 405/10/6
f 405/10/6 404/10/6 406/10/6
f 407/10/6 408/10/6 409/10/6
f 409/10/6 408/10/6 410/10/6
f 411/5/6 412/5/6 413/5/6
f 413/5/6 412/5/6 414/5/6
f 415/5/6 416/5/6 417/5/6
f 417/5/6 416/5/6 418/5/6
f 419/5/6 420/5/6 421/5/6
f 421/5/6 420/5/6 422/5/6
f 423/4/6 424/4/6 427/4/6
f 427/4/6 424/4/6 428/4/6
f 425/5/6 426/5/6 429/5/6
f 429/5/6 426/5/6 430/5/6
f 431/5/6 432/5/6 435/5/6
f 435/5/6 432/5/6 436/5/6
f 433/10/6 434/10/6 437/10/6
f 437/10/6 434/10/6 438/10/6
f 439/4/6 440/4/6 441/4/6
f 441/4/6 440/4/6 442/4/6
f 443/5/6 444/5/6 445/5/6
f 445/5/6 444/5/6 446/5/6
f 447/2/6 448/2/6 453/2/6
f 453/2/6 448/2/6 454/2/6
f 449/4/6 450/4/6 455/4/6
f 455/4/6 450/4/6 456/4/6
f 451/7/6 452/7/6 457/7/6
f 457/7/6 452/7/6 458/7/6
f 459/2/6 460/2/6 463/2/6
f 463/2/6 460/2/6 464/2/6
f 461/4/6 462/4/6 465/4/6
f 465/4/6 462/4/6 466/4/6
