# MagicaVoxel @ Ephtracy

# group
o 

# material
mtllib SceletHead.mtl
usemtl palette

# normals
vn -1 0 0
vn 1 0 0
vn 0 0 1
vn 0 0 -1
vn 0 -1 0
vn 0 1 0

# texcoords
vt 0.970703 0.5
vt 0.974609 0.5
vt 0.978516 0.5

# verts
v -2 0 2
v -2 0 -2
v -2 0.9 1.5
v -2 0.9 -1.5
v -2 1.4 1.5
v -2 1.4 0.5
v -2 1.4 -0.5
v -2 1.4 -1.5
v -2 1.7 1.5
v -2 1.7 0.5
v -2 1.7 -0.5
v -2 1.7 -1.5
v -2 2.3 1.5
v -2 2.3 0.5
v -2 2.3 -0.5
v -2 2.3 -1.5
v -2 4 2
v -2 4 -2
v 1.9 0 1.9
v 1.9 0 -1.9
v 1.9 3.9 1.9
v 1.9 3.9 -1.9
v -1.9 0 1.9
v -1.9 0 -1.9
v -1.9 0.9 1.5
v -1.9 0.9 -1.5
v -1.9 1.4 1.5
v -1.9 1.4 0.5
v -1.9 1.4 -0.5
v -1.9 1.4 -1.5
v -1.9 1.7 1.5
v -1.9 1.7 0.5
v -1.9 1.7 -0.5
v -1.9 1.7 -1.5
v -1.9 2.3 1.5
v -1.9 2.3 0.5
v -1.9 2.3 -0.5
v -1.9 2.3 -1.5
v -1.9 3.9 1.9
v -1.9 3.9 -1.9
v 2 0 2
v 2 0 -2
v 2 4 2
v 2 4 -2
v -2 0 2
v -2 4 2
v 2 0 2
v 2 4 2
v -1.9 0 -1.9
v -1.9 3.9 -1.9
v 1.9 0 -1.9
v 1.9 3.9 -1.9
v -1.9 0 1.9
v -1.9 3.9 1.9
v 1.9 0 1.9
v 1.9 3.9 1.9
v -2 0 -2
v -2 4 -2
v 2 0 -2
v 2 4 -2
v -2 0 2
v 2 0 2
v -1.9 0 1.9
v 1.9 0 1.9
v -1.9 0 -1.9
v 1.9 0 -1.9
v -2 0 -2
v 2 0 -2
v -1.9 3.9 1.9
v 1.9 3.9 1.9
v -1.9 3.9 -1.9
v 1.9 3.9 -1.9
v -2 4 2
v 2 4 2
v -2 4 -2
v 2 4 -2

# faces
f 3/1/1 2/1/1 1/1/1
f 4/1/1 2/1/1 3/1/1
f 5/1/1 3/1/1 1/1/1
f 5/2/1 4/2/1 3/2/1
f 6/2/1 4/2/1 5/2/1
f 7/2/1 4/2/1 6/2/1
f 8/1/1 2/1/1 4/1/1
f 8/2/1 4/2/1 7/2/1
f 9/1/1 5/1/1 1/1/1
f 9/1/1 6/1/1 5/1/1
f 10/3/1 7/3/1 6/3/1
f 10/1/1 6/1/1 9/1/1
f 11/1/1 8/1/1 7/1/1
f 11/3/1 7/3/1 10/3/1
f 12/1/1 2/1/1 8/1/1
f 12/1/1 8/1/1 11/1/1
f 13/1/1 9/1/1 1/1/1
f 13/2/1 10/2/1 9/2/1
f 14/1/1 11/1/1 10/1/1
f 14/2/1 10/2/1 13/2/1
f 15/2/1 12/2/1 11/2/1
f 15/1/1 11/1/1 14/1/1
f 16/1/1 2/1/1 12/1/1
f 16/2/1 12/2/1 15/2/1
f 17/1/1 15/1/1 14/1/1
f 17/1/1 13/1/1 1/1/1
f 17/1/1 16/1/1 15/1/1
f 17/1/1 14/1/1 13/1/1
f 18/1/1 2/1/1 16/1/1
f 18/1/1 16/1/1 17/1/1
f 21/1/1 20/1/1 19/1/1
f 22/1/1 20/1/1 21/1/1
f 23/1/2 24/1/2 25/1/2
f 25/1/2 24/1/2 26/1/2
f 23/1/2 25/1/2 27/1/2
f 25/2/2 26/2/2 27/2/2
f 27/2/2 26/2/2 28/2/2
f 28/2/2 26/2/2 29/2/2
f 26/1/2 24/1/2 30/1/2
f 29/2/2 26/2/2 30/2/2
f 23/1/2 27/1/2 31/1/2
f 27/1/2 28/1/2 31/1/2
f 28/3/2 29/3/2 32/3/2
f 31/1/2 28/1/2 32/1/2
f 29/1/2 30/1/2 33/1/2
f 32/3/2 29/3/2 33/3/2
f 30/1/2 24/1/2 34/1/2
f 33/1/2 30/1/2 34/1/2
f 23/1/2 31/1/2 35/1/2
f 31/2/2 32/2/2 35/2/2
f 32/1/2 33/1/2 36/1/2
f 35/2/2 32/2/2 36/2/2
f 33/2/2 34/2/2 37/2/2
f 36/1/2 33/1/2 37/1/2
f 34/1/2 24/1/2 38/1/2
f 37/2/2 34/2/2 38/2/2
f 36/1/2 37/1/2 39/1/2
f 23/1/2 35/1/2 39/1/2
f 37/1/2 38/1/2 39/1/2
f 35/1/2 36/1/2 39/1/2
f 38/1/2 24/1/2 40/1/2
f 39/1/2 38/1/2 40/1/2
f 41/1/2 42/1/2 43/1/2
f 43/1/2 42/1/2 44/1/2
f 47/1/3 46/1/3 45/1/3
f 48/1/3 46/1/3 47/1/3
f 51/1/3 50/1/3 49/1/3
f 52/1/3 50/1/3 51/1/3
f 53/1/4 54/1/4 55/1/4
f 55/1/4 54/1/4 56/1/4
f 57/1/4 58/1/4 59/1/4
f 59/1/4 58/1/4 60/1/4
f 63/1/5 62/1/5 61/1/5
f 64/1/5 62/1/5 63/1/5
f 65/1/5 63/1/5 61/1/5
f 66/1/5 62/1/5 64/1/5
f 67/1/5 65/1/5 61/1/5
f 67/1/5 66/1/5 65/1/5
f 68/1/5 62/1/5 66/1/5
f 68/1/5 66/1/5 67/1/5
f 71/1/5 70/1/5 69/1/5
f 72/1/5 70/1/5 71/1/5
f 73/1/6 74/1/6 75/1/6
f 75/1/6 74/1/6 76/1/6
