# MagicaVoxel @ Ephtracy

# group
o 

# material
mtllib Arrow.mtl
usemtl palette

# normals
vn -1 0 0
vn 1 0 0
vn 0 0 1
vn 0 0 -1
vn 0 -1 0
vn 0 1 0

# texcoords
vt 0.970703 0.5
vt 0.974609 0.5
vt 0.978516 0.5
vt 0.982422 0.5

# verts
v -0.6 -0.6 0
v -0.6 -0.6 -0.1
v -0.6 -0.3 0
v -0.6 -0.3 -0.1
v -0.5 -0.3 0
v -0.5 -0.3 -0.1
v -0.5 -0.1 0
v -0.5 -0.1 -0.1
v -0.4 -0.1 0
v -0.4 -0.1 -0.1
v -0.4 -5.96046e-08 0
v -0.4 -5.96046e-08 -0.1
v -0.2 -0.1 0
v -0.2 -0.1 -0.1
v -0.2 -5.96046e-08 0
v -0.2 -5.96046e-08 -0.1
v -0.1 -5.96046e-08 0
v -0.1 -5.96046e-08 -0.1
v -0.1 0.1 0
v -0.1 0.1 -0.1
v -5.96046e-08 0.1 0
v -5.96046e-08 0.1 -0.1
v -5.96046e-08 0.2 0
v -5.96046e-08 0.2 -0.1
v 0.1 0.2 0
v 0.1 0.2 -0.1
v 0.1 0.3 0
v 0.1 0.3 -0.1
v 0.2 0.3 0
v 0.2 0.3 -0.1
v 0.2 0.4 0
v 0.2 0.4 -0.1
v 0.2 0.5 0
v 0.2 0.5 -0.1
v 0.3 0.5 0
v 0.3 0.5 -0.1
v 0.3 0.6 0
v 0.3 0.6 -0.1
v 0.4 0.6 0
v 0.4 0.6 -0.1
v 0.4 0.7 0
v 0.4 0.7 -0.1
v -0.3 -0.6 0
v -0.3 -0.6 -0.1
v -0.3 -0.5 0
v -0.3 -0.5 -0.1
v -0.3 -0.1 0
v -0.3 -0.1 -0.1
v -0.3 -5.96046e-08 0
v -0.3 -5.96046e-08 -0.1
v -0.1 -0.5 0
v -0.1 -0.5 -0.1
v -0.1 -0.4 0
v -0.1 -0.4 -0.1
v -0.1 -0.3 0
v -0.1 -0.3 -0.1
v -0.1 -0.2 0
v -0.1 -0.2 -0.1
v -5.96046e-08 -0.4 0
v -5.96046e-08 -0.4 -0.1
v -5.96046e-08 -0.3 0
v -5.96046e-08 -0.3 -0.1
v -5.96046e-08 -0.2 0
v -5.96046e-08 -0.2 -0.1
v -5.96046e-08 -0.1 0
v -5.96046e-08 -0.1 -0.1
v 0.1 -0.1 0
v 0.1 -0.1 -0.1
v 0.1 -5.96046e-08 0
v 0.1 -5.96046e-08 -0.1
v 0.2 -5.96046e-08 0
v 0.2 -5.96046e-08 -0.1
v 0.2 0.1 0
v 0.2 0.1 -0.1
v 0.3 0.1 0
v 0.3 0.1 -0.1
v 0.3 0.2 0
v 0.3 0.2 -0.1
v 0.5 0.2 0
v 0.5 0.2 -0.1
v 0.5 0.3 0
v 0.5 0.3 -0.1
v 0.5 0.6 0
v 0.5 0.6 -0.1
v 0.5 0.7 0
v 0.5 0.7 -0.1
v 0.6 0.3 0
v 0.6 0.3 -0.1
v 0.6 0.4 0
v 0.6 0.4 -0.1
v 0.6 0.5 0
v 0.6 0.5 -0.1
v 0.6 0.6 0
v 0.6 0.6 -0.1
v 0.7 0.4 0
v 0.7 0.4 -0.1
v 0.7 0.5 0
v 0.7 0.5 -0.1
v -0.6 -0.6 0
v -0.6 -0.3 0
v -0.5 -0.5 0
v -0.5 -0.3 0
v -0.5 -0.1 0
v -0.4 -0.3 0
v -0.4 -0.1 0
v -0.4 -5.96046e-08 0
v -0.3 -0.6 0
v -0.3 -0.5 0
v -0.3 -0.4 0
v -0.3 -0.3 0
v -0.3 -0.2 0
v -0.3 -0.1 0
v -0.3 -5.96046e-08 0
v -0.2 -0.3 0
v -0.2 -0.2 0
v -0.2 -0.1 0
v -0.2 -5.96046e-08 0
v -0.1 -0.5 0
v -0.1 -0.4 0
v -0.1 -0.3 0
v -0.1 -0.2 0
v -0.1 -0.1 0
v -0.1 -5.96046e-08 0
v -0.1 0.1 0
v -5.96046e-08 -0.4 0
v -5.96046e-08 -0.3 0
v -5.96046e-08 -0.2 0
v -5.96046e-08 -0.1 0
v -5.96046e-08 -5.96046e-08 0
v -5.96046e-08 0.1 0
v -5.96046e-08 0.2 0
v 0.1 -0.1 0
v 0.1 -5.96046e-08 0
v 0.1 0.1 0
v 0.1 0.2 0
v 0.1 0.3 0
v 0.2 -5.96046e-08 0
v 0.2 0.1 0
v 0.2 0.2 0
v 0.2 0.3 0
v 0.2 0.4 0
v 0.2 0.5 0
v 0.3 0.1 0
v 0.3 0.2 0
v 0.3 0.3 0
v 0.3 0.4 0
v 0.3 0.5 0
v 0.3 0.6 0
v 0.4 0.2 0
v 0.4 0.3 0
v 0.4 0.5 0
v 0.4 0.6 0
v 0.4 0.7 0
v 0.5 0.2 0
v 0.5 0.3 0
v 0.5 0.4 0
v 0.5 0.5 0
v 0.5 0.6 0
v 0.5 0.7 0
v 0.6 0.3 0
v 0.6 0.4 0
v 0.6 0.5 0
v 0.6 0.6 0
v 0.7 0.4 0
v 0.7 0.5 0
v -0.6 -0.6 -0.1
v -0.6 -0.3 -0.1
v -0.5 -0.5 -0.1
v -0.5 -0.3 -0.1
v -0.5 -0.1 -0.1
v -0.4 -0.3 -0.1
v -0.4 -0.1 -0.1
v -0.4 -5.96046e-08 -0.1
v -0.3 -0.6 -0.1
v -0.3 -0.5 -0.1
v -0.3 -0.4 -0.1
v -0.3 -0.3 -0.1
v -0.3 -0.2 -0.1
v -0.3 -0.1 -0.1
v -0.3 -5.96046e-08 -0.1
v -0.2 -0.3 -0.1
v -0.2 -0.2 -0.1
v -0.2 -0.1 -0.1
v -0.2 -5.96046e-08 -0.1
v -0.1 -0.5 -0.1
v -0.1 -0.4 -0.1
v -0.1 -0.3 -0.1
v -0.1 -0.2 -0.1
v -0.1 -0.1 -0.1
v -0.1 -5.96046e-08 -0.1
v -0.1 0.1 -0.1
v -5.96046e-08 -0.4 -0.1
v -5.96046e-08 -0.3 -0.1
v -5.96046e-08 -0.2 -0.1
v -5.96046e-08 -0.1 -0.1
v -5.96046e-08 -5.96046e-08 -0.1
v -5.96046e-08 0.1 -0.1
v -5.96046e-08 0.2 -0.1
v 0.1 -0.1 -0.1
v 0.1 -5.96046e-08 -0.1
v 0.1 0.1 -0.1
v 0.1 0.2 -0.1
v 0.1 0.3 -0.1
v 0.2 -5.96046e-08 -0.1
v 0.2 0.1 -0.1
v 0.2 0.2 -0.1
v 0.2 0.3 -0.1
v 0.2 0.4 -0.1
v 0.2 0.5 -0.1
v 0.3 0.1 -0.1
v 0.3 0.2 -0.1
v 0.3 0.3 -0.1
v 0.3 0.4 -0.1
v 0.3 0.5 -0.1
v 0.3 0.6 -0.1
v 0.4 0.2 -0.1
v 0.4 0.3 -0.1
v 0.4 0.5 -0.1
v 0.4 0.6 -0.1
v 0.4 0.7 -0.1
v 0.5 0.2 -0.1
v 0.5 0.3 -0.1
v 0.5 0.4 -0.1
v 0.5 0.5 -0.1
v 0.5 0.6 -0.1
v 0.5 0.7 -0.1
v 0.6 0.3 -0.1
v 0.6 0.4 -0.1
v 0.6 0.5 -0.1
v 0.6 0.6 -0.1
v 0.7 0.4 -0.1
v 0.7 0.5 -0.1
v -0.6 -0.6 0
v -0.3 -0.6 0
v -0.6 -0.6 -0.1
v -0.3 -0.6 -0.1
v -0.3 -0.5 0
v -0.1 -0.5 0
v -0.3 -0.5 -0.1
v -0.1 -0.5 -0.1
v -0.1 -0.4 0
v -5.96046e-08 -0.4 0
v -0.1 -0.4 -0.1
v -5.96046e-08 -0.4 -0.1
v -0.1 -0.2 0
v -5.96046e-08 -0.2 0
v -0.1 -0.2 -0.1
v -5.96046e-08 -0.2 -0.1
v -5.96046e-08 -0.1 0
v 0.1 -0.1 0
v -5.96046e-08 -0.1 -0.1
v 0.1 -0.1 -0.1
v 0.1 -5.96046e-08 0
v 0.2 -5.96046e-08 0
v 0.1 -5.96046e-08 -0.1
v 0.2 -5.96046e-08 -0.1
v 0.2 0.1 0
v 0.3 0.1 0
v 0.2 0.1 -0.1
v 0.3 0.1 -0.1
v 0.3 0.2 0
v 0.4 0.2 0
v 0.5 0.2 0
v 0.3 0.2 -0.1
v 0.4 0.2 -0.1
v 0.5 0.2 -0.1
v 0.5 0.3 0
v 0.6 0.3 0
v 0.5 0.3 -0.1
v 0.6 0.3 -0.1
v 0.6 0.4 0
v 0.7 0.4 0
v 0.6 0.4 -0.1
v 0.7 0.4 -0.1
v -0.6 -0.3 0
v -0.5 -0.3 0
v -0.1 -0.3 0
v -5.96046e-08 -0.3 0
v -0.6 -0.3 -0.1
v -0.5 -0.3 -0.1
v -0.1 -0.3 -0.1
v -5.96046e-08 -0.3 -0.1
v -0.5 -0.1 0
v -0.4 -0.1 0
v -0.3 -0.1 0
v -0.2 -0.1 0
v -0.5 -0.1 -0.1
v -0.4 -0.1 -0.1
v -0.3 -0.1 -0.1
v -0.2 -0.1 -0.1
v -0.4 -5.96046e-08 0
v -0.3 -5.96046e-08 0
v -0.2 -5.96046e-08 0
v -0.1 -5.96046e-08 0
v -0.4 -5.96046e-08 -0.1
v -0.3 -5.96046e-08 -0.1
v -0.2 -5.96046e-08 -0.1
v -0.1 -5.96046e-08 -0.1
v -0.1 0.1 0
v -5.96046e-08 0.1 0
v -0.1 0.1 -0.1
v -5.96046e-08 0.1 -0.1
v -5.96046e-08 0.2 0
v 0.1 0.2 0
v -5.96046e-08 0.2 -0.1
v 0.1 0.2 -0.1
v 0.1 0.3 0
v 0.2 0.3 0
v 0.1 0.3 -0.1
v 0.2 0.3 -0.1
v 0.2 0.5 0
v 0.3 0.5 0
v 0.6 0.5 0
v 0.7 0.5 0
v 0.2 0.5 -0.1
v 0.3 0.5 -0.1
v 0.6 0.5 -0.1
v 0.7 0.5 -0.1
v 0.3 0.6 0
v 0.4 0.6 0
v 0.5 0.6 0
v 0.6 0.6 0
v 0.3 0.6 -0.1
v 0.4 0.6 -0.1
v 0.5 0.6 -0.1
v 0.6 0.6 -0.1
v 0.4 0.7 0
v 0.5 0.7 0
v 0.4 0.7 -0.1
v 0.5 0.7 -0.1

# faces
f 3/1/1 2/1/1 1/1/1
f 4/1/1 2/1/1 3/1/1
f 7/1/1 6/1/1 5/1/1
f 8/1/1 6/1/1 7/1/1
f 11/1/1 10/1/1 9/1/1
f 12/1/1 10/1/1 11/1/1
f 15/3/1 14/3/1 13/3/1
f 16/3/1 14/3/1 15/3/1
f 19/3/1 18/3/1 17/3/1
f 20/3/1 18/3/1 19/3/1
f 23/3/1 22/3/1 21/3/1
f 24/3/1 22/3/1 23/3/1
f 27/3/1 26/3/1 25/3/1
f 28/3/1 26/3/1 27/3/1
f 31/3/1 30/3/1 29/3/1
f 32/3/1 30/3/1 31/3/1
f 33/1/1 32/1/1 31/1/1
f 34/1/1 32/1/1 33/1/1
f 37/1/1 36/1/1 35/1/1
f 38/1/1 36/1/1 37/1/1
f 41/1/1 40/1/1 39/1/1
f 42/1/1 40/1/1 41/1/1
f 43/1/2 44/1/2 45/1/2
f 45/1/2 44/1/2 46/1/2
f 47/1/2 48/1/2 49/1/2
f 49/1/2 48/1/2 50/1/2
f 51/1/2 52/1/2 53/1/2
f 53/1/2 52/1/2 54/1/2
f 55/1/2 56/1/2 57/1/2
f 57/1/2 56/1/2 58/1/2
f 59/1/2 60/1/2 61/1/2
f 61/1/2 60/1/2 62/1/2
f 63/3/2 64/3/2 65/3/2
f 65/3/2 64/3/2 66/3/2
f 67/3/2 68/3/2 69/3/2
f 69/3/2 68/3/2 70/3/2
f 71/3/2 72/3/2 73/3/2
f 73/3/2 72/3/2 74/3/2
f 75/3/2 76/3/2 77/3/2
f 77/3/2 76/3/2 78/3/2
f 79/1/2 80/1/2 81/1/2
f 81/1/2 80/1/2 82/1/2
f 83/1/2 84/1/2 85/1/2
f 85/1/2 84/1/2 86/1/2
f 87/1/2 88/1/2 89/1/2
f 89/1/2 88/1/2 90/1/2
f 91/1/2 92/1/2 93/1/2
f 93/1/2 92/1/2 94/1/2
f 95/1/2 96/1/2 97/1/2
f 97/1/2 96/1/2 98/1/2
f 101/1/3 100/1/3 99/1/3
f 102/1/3 100/1/3 101/1/3
f 104/4/3 102/4/3 101/4/3
f 104/1/3 103/1/3 102/1/3
f 105/1/3 103/1/3 104/1/3
f 107/1/3 101/1/3 99/1/3
f 108/4/3 104/4/3 101/4/3
f 108/1/3 101/1/3 107/1/3
f 108/4/3 105/4/3 104/4/3
f 109/4/3 105/4/3 108/4/3
f 110/4/3 105/4/3 109/4/3
f 111/4/3 105/4/3 110/4/3
f 112/1/3 106/1/3 105/1/3
f 112/4/3 105/4/3 111/4/3
f 113/1/3 106/1/3 112/1/3
f 114/2/3 111/2/3 110/2/3
f 114/4/3 110/4/3 109/4/3
f 115/3/3 112/3/3 111/3/3
f 115/2/3 111/2/3 114/2/3
f 116/3/3 112/3/3 115/3/3
f 118/1/3 109/1/3 108/1/3
f 119/4/3 114/4/3 109/4/3
f 119/1/3 109/1/3 118/1/3
f 120/1/3 115/1/3 114/1/3
f 120/4/3 114/4/3 119/4/3
f 121/2/3 116/2/3 115/2/3
f 121/1/3 115/1/3 120/1/3
f 122/3/3 117/3/3 116/3/3
f 122/2/3 116/2/3 121/2/3
f 123/3/3 117/3/3 122/3/3
f 125/1/3 120/1/3 119/1/3
f 126/1/3 120/1/3 125/1/3
f 127/3/3 122/3/3 121/3/3
f 128/2/3 123/2/3 122/2/3
f 128/3/3 122/3/3 127/3/3
f 129/3/3 124/3/3 123/3/3
f 129/2/3 123/2/3 128/2/3
f 130/3/3 124/3/3 129/3/3
f 132/3/3 129/3/3 128/3/3
f 133/2/3 130/2/3 129/2/3
f 133/3/3 129/3/3 132/3/3
f 134/3/3 131/3/3 130/3/3
f 134/2/3 130/2/3 133/2/3
f 135/3/3 131/3/3 134/3/3
f 137/3/3 134/3/3 133/3/3
f 138/2/3 135/2/3 134/2/3
f 138/3/3 134/3/3 137/3/3
f 139/3/3 136/3/3 135/3/3
f 139/2/3 135/2/3 138/2/3
f 140/3/3 136/3/3 139/3/3
f 143/3/3 139/3/3 138/3/3
f 144/2/3 140/2/3 139/2/3
f 144/3/3 139/3/3 143/3/3
f 145/3/3 141/3/3 140/3/3
f 145/2/3 140/2/3 144/2/3
f 146/1/3 142/1/3 141/1/3
f 146/3/3 141/3/3 145/3/3
f 147/1/3 142/1/3 146/1/3
f 149/3/3 145/3/3 144/3/3
f 150/4/3 147/4/3 146/4/3
f 150/3/3 145/3/3 149/3/3
f 150/4/3 146/4/3 145/4/3
f 151/1/3 148/1/3 147/1/3
f 151/4/3 147/4/3 150/4/3
f 152/1/3 148/1/3 151/1/3
f 154/1/3 150/1/3 149/1/3
f 155/4/3 151/4/3 150/4/3
f 155/1/3 150/1/3 154/1/3
f 155/4/3 152/4/3 151/4/3
f 156/4/3 152/4/3 155/4/3
f 157/4/3 152/4/3 156/4/3
f 158/1/3 153/1/3 152/1/3
f 158/4/3 152/4/3 157/4/3
f 159/1/3 153/1/3 158/1/3
f 160/1/3 156/1/3 155/1/3
f 161/4/3 157/4/3 156/4/3
f 161/1/3 156/1/3 160/1/3
f 162/1/3 158/1/3 157/1/3
f 162/4/3 157/4/3 161/4/3
f 163/1/3 158/1/3 162/1/3
f 164/1/3 162/1/3 161/1/3
f 165/1/3 162/1/3 164/1/3
f 166/1/4 167/1/4 168/1/4
f 168/1/4 167/1/4 169/1/4
f 168/4/4 169/4/4 171/4/4
f 169/1/4 170/1/4 171/1/4
f 171/1/4 170/1/4 172/1/4
f 166/1/4 168/1/4 174/1/4
f 168/4/4 171/4/4 175/4/4
f 174/1/4 168/1/4 175/1/4
f 171/4/4 172/4/4 175/4/4
f 175/4/4 172/4/4 176/4/4
f 176/4/4 172/4/4 177/4/4
f 177/4/4 172/4/4 178/4/4
f 172/1/4 173/1/4 179/1/4
f 178/4/4 172/4/4 179/4/4
f 179/1/4 173/1/4 180/1/4
f 177/2/4 178/2/4 181/2/4
f 176/4/4 177/4/4 181/4/4
f 178/3/4 179/3/4 182/3/4
f 181/2/4 178/2/4 182/2/4
f 182/3/4 179/3/4 183/3/4
f 175/1/4 176/1/4 185/1/4
f 176/4/4 181/4/4 186/4/4
f 185/1/4 176/1/4 186/1/4
f 181/1/4 182/1/4 187/1/4
f 186/4/4 181/4/4 187/4/4
f 182/2/4 183/2/4 188/2/4
f 187/1/4 182/1/4 188/1/4
f 183/3/4 184/3/4 189/3/4
f 188/2/4 183/2/4 189/2/4
f 189/3/4 184/3/4 190/3/4
f 186/1/4 187/1/4 192/1/4
f 192/1/4 187/1/4 193/1/4
f 188/3/4 189/3/4 194/3/4
f 189/2/4 190/2/4 195/2/4
f 194/3/4 189/3/4 195/3/4
f 190/3/4 191/3/4 196/3/4
f 195/2/4 190/2/4 196/2/4
f 196/3/4 191/3/4 197/3/4
f 195/3/4 196/3/4 199/3/4
f 196/2/4 197/2/4 200/2/4
f 199/3/4 196/3/4 200/3/4
f 197/3/4 198/3/4 201/3/4
f 200/2/4 197/2/4 201/2/4
f 201/3/4 198/3/4 202/3/4
f 200/3/4 201/3/4 204/3/4
f 201/2/4 202/2/4 205/2/4
f 204/3/4 201/3/4 205/3/4
f 202/3/4 203/3/4 206/3/4
f 205/2/4 202/2/4 206/2/4
f 206/3/4 203/3/4 207/3/4
f 205/3/4 206/3/4 210/3/4
f 206/2/4 207/2/4 211/2/4
f 210/3/4 206/3/4 211/3/4
f 207/3/4 208/3/4 212/3/4
f 211/2/4 207/2/4 212/2/4
f 208/1/4 209/1/4 213/1/4
f 212/3/4 208/3/4 213/3/4
f 213/1/4 209/1/4 214/1/4
f 211/3/4 212/3/4 216/3/4
f 213/4/4 214/4/4 217/4/4
f 216/3/4 212/3/4 217/3/4
f 212/4/4 213/4/4 217/4/4
f 214/1/4 215/1/4 218/1/4
f 217/4/4 214/4/4 218/4/4
f 218/1/4 215/1/4 219/1/4
f 216/1/4 217/1/4 221/1/4
f 217/4/4 218/4/4 222/4/4
f 221/1/4 217/1/4 222/1/4
f 218/4/4 219/4/4 222/4/4
f 222/4/4 219/4/4 223/4/4
f 223/4/4 219/4/4 224/4/4
f 219/1/4 220/1/4 225/1/4
f 224/4/4 219/4/4 225/4/4
f 225/1/4 220/1/4 226/1/4
f 222/1/4 223/1/4 227/1/4
f 223/4/4 224/4/4 228/4/4
f 227/1/4 223/1/4 228/1/4
f 224/1/4 225/1/4 229/1/4
f 228/4/4 224/4/4 229/4/4
f 229/1/4 225/1/4 230/1/4
f 228/1/4 229/1/4 231/1/4
f 231/1/4 229/1/4 232/1/4
f 235/1/5 234/1/5 233/1/5
f 236/1/5 234/1/5 235/1/5
f 239/1/5 238/1/5 237/1/5
f 240/1/5 238/1/5 239/1/5
f 243/1/5 242/1/5 241/1/5
f 244/1/5 242/1/5 243/1/5
f 247/3/5 246/3/5 245/3/5
f 248/3/5 246/3/5 247/3/5
f 251/3/5 250/3/5 249/3/5
f 252/3/5 250/3/5 251/3/5
f 255/3/5 254/3/5 253/3/5
f 256/3/5 254/3/5 255/3/5
f 259/3/5 258/3/5 257/3/5
f 260/3/5 258/3/5 259/3/5
f 264/3/5 262/3/5 261/3/5
f 265/1/5 263/1/5 262/1/5
f 265/3/5 262/3/5 264/3/5
f 266/1/5 263/1/5 265/1/5
f 269/1/5 268/1/5 267/1/5
f 270/1/5 268/1/5 269/1/5
f 273/1/5 272/1/5 271/1/5
f 274/1/5 272/1/5 273/1/5
f 275/1/6 276/1/6 279/1/6
f 279/1/6 276/1/6 280/1/6
f 277/1/6 278/1/6 281/1/6
f 281/1/6 278/1/6 282/1/6
f 283/1/6 284/1/6 287/1/6
f 287/1/6 284/1/6 288/1/6
f 285/3/6 286/3/6 289/3/6
f 289/3/6 286/3/6 290/3/6
f 291/1/6 292/1/6 295/1/6
f 295/1/6 292/1/6 296/1/6
f 293/3/6 294/3/6 297/3/6
f 297/3/6 294/3/6 298/3/6
f 299/3/6 300/3/6 301/3/6
f 301/3/6 300/3/6 302/3/6
f 303/3/6 304/3/6 305/3/6
f 305/3/6 304/3/6 306/3/6
f 307/3/6 308/3/6 309/3/6
f 309/3/6 308/3/6 310/3/6
f 311/1/6 312/1/6 315/1/6
f 315/1/6 312/1/6 316/1/6
f 313/1/6 314/1/6 317/1/6
f 317/1/6 314/1/6 318/1/6
f 319/1/6 320/1/6 323/1/6
f 323/1/6 320/1/6 324/1/6
f 321/1/6 322/1/6 325/1/6
f 325/1/6 322/1/6 326/1/6
f 327/1/6 328/1/6 329/1/6
f 329/1/6 328/1/6 330/1/6
