# MagicaVoxel @ Ephtracy

# group
o 

# material
mtllib Experience.mtl
usemtl palette

# normals
vn 1 0 0
vn -1 0 0
vn 0 0 1
vn 0 0 -1
vn 0 -1 0
vn 0 1 0

# texcoords
vt 0.970703 0.5
vt 0.974609 0.5
vt 0.978516 0.5
vt 0.982422 0.5
vt 0.986328 0.5

# verts
v 0.1 -0.7 0.2
v 0.1 -0.7 -0.3
v 0.1 -0.6 0.3
v 0.1 -0.6 0.2
v 0.1 -0.6 -0.3
v 0.1 -0.6 -0.4
v 0.1 -0.5 0.4
v 0.1 -0.5 0.3
v 0.1 -0.5 0.2
v 0.1 -0.5 -0.3
v 0.1 -0.5 -0.4
v 0.1 -0.5 -0.5
v 0.1 -0.4 0.1
v 0.1 -0.4 -0.2
v 0.1 0 0.4
v 0.1 0 0.3
v 0.1 0 0.2
v 0.1 0 0.1
v 0.1 0 -0.2
v 0.1 0 -0.3
v 0.1 0 -0.4
v 0.1 0 -0.5
v 0.1 0.1 0.3
v 0.1 0.1 0.2
v 0.1 0.1 0.1
v 0.1 0.1 0
v 0.1 0.1 -0.1
v 0.1 0.1 -0.2
v 0.1 0.1 -0.3
v 0.1 0.1 -0.4
v 0.1 0.3 0.3
v 0.1 0.3 0.2
v 0.1 0.3 0.1
v 0.1 0.3 0
v 0.1 0.3 -0.1
v 0.1 0.3 -0.2
v 0.1 0.3 -0.3
v 0.1 0.3 -0.4
v 0.1 0.5 0.3
v 0.1 0.5 0.2
v 0.1 0.5 0.1
v 0.1 0.5 -0.2
v 0.1 0.5 -0.3
v 0.1 0.5 -0.4
v 0.1 0.6 0.2
v 0.1 0.6 0.1
v 0.1 0.6 -0.2
v 0.1 0.6 -0.3
v 0.1 0.7 0.1
v 0.1 0.7 -0.2
v 0 -0.7 0.2
v 0 -0.7 -0.3
v 0 -0.6 0.3
v 0 -0.6 0.2
v 0 -0.6 -0.3
v 0 -0.6 -0.4
v 0 -0.5 0.4
v 0 -0.5 0.3
v 0 -0.5 0.2
v 0 -0.5 -0.3
v 0 -0.5 -0.4
v 0 -0.5 -0.5
v 0 -0.4 0.1
v 0 -0.4 -0.2
v 0 0 0.4
v 0 0 0.3
v 0 0 0.2
v 0 0 0.1
v 0 0 -0.2
v 0 0 -0.3
v 0 0 -0.4
v 0 0 -0.5
v 0 0.1 0.3
v 0 0.1 0.2
v 0 0.1 0.1
v 0 0.1 0
v 0 0.1 -0.1
v 0 0.1 -0.2
v 0 0.1 -0.3
v 0 0.1 -0.4
v 0 0.3 0.3
v 0 0.3 0.2
v 0 0.3 0.1
v 0 0.3 0
v 0 0.3 -0.1
v 0 0.3 -0.2
v 0 0.3 -0.3
v 0 0.3 -0.4
v 0 0.5 0.3
v 0 0.5 0.2
v 0 0.5 0.1
v 0 0.5 -0.2
v 0 0.5 -0.3
v 0 0.5 -0.4
v 0 0.6 0.2
v 0 0.6 0.1
v 0 0.6 -0.2
v 0 0.6 -0.3
v 0 0.7 0.1
v 0 0.7 -0.2
v 0.1 -0.5 0.4
v 0.1 0 0.4
v 0 -0.5 0.4
v 0 0 0.4
v 0.1 -0.6 0.3
v 0.1 -0.5 0.3
v 0.1 0 0.3
v 0.1 0.1 0.3
v 0.1 0.3 0.3
v 0.1 0.5 0.3
v 0 -0.6 0.3
v 0 -0.5 0.3
v 0 0 0.3
v 0 0.1 0.3
v 0 0.3 0.3
v 0 0.5 0.3
v 0.1 -0.7 0.2
v 0.1 -0.6 0.2
v 0.1 0.1 0.2
v 0.1 0.3 0.2
v 0.1 0.5 0.2
v 0.1 0.6 0.2
v 0 -0.7 0.2
v 0 -0.6 0.2
v 0 0.1 0.2
v 0 0.3 0.2
v 0 0.5 0.2
v 0 0.6 0.2
v 0.1 0.6 0.1
v 0.1 0.7 0.1
v 0 0.6 0.1
v 0 0.7 0.1
v 0.1 0.6 -0.2
v 0.1 0.7 -0.2
v 0 0.6 -0.2
v 0 0.7 -0.2
v 0.1 -0.7 -0.3
v 0.1 -0.6 -0.3
v 0.1 0.1 -0.3
v 0.1 0.3 -0.3
v 0.1 0.5 -0.3
v 0.1 0.6 -0.3
v 0 -0.7 -0.3
v 0 -0.6 -0.3
v 0 0.1 -0.3
v 0 0.3 -0.3
v 0 0.5 -0.3
v 0 0.6 -0.3
v 0.1 -0.6 -0.4
v 0.1 -0.5 -0.4
v 0.1 0 -0.4
v 0.1 0.1 -0.4
v 0.1 0.3 -0.4
v 0.1 0.5 -0.4
v 0 -0.6 -0.4
v 0 -0.5 -0.4
v 0 0 -0.4
v 0 0.1 -0.4
v 0 0.3 -0.4
v 0 0.5 -0.4
v 0.1 -0.5 -0.5
v 0.1 0 -0.5
v 0 -0.5 -0.5
v 0 0 -0.5
v 0.1 -0.7 0.2
v 0 -0.7 0.2
v 0.1 -0.7 -0.3
v 0 -0.7 -0.3
v 0.1 -0.6 0.3
v 0 -0.6 0.3
v 0.1 -0.6 0.2
v 0 -0.6 0.2
v 0.1 -0.6 -0.3
v 0 -0.6 -0.3
v 0.1 -0.6 -0.4
v 0 -0.6 -0.4
v 0.1 -0.5 0.4
v 0 -0.5 0.4
v 0.1 -0.5 0.3
v 0 -0.5 0.3
v 0.1 -0.5 -0.4
v 0 -0.5 -0.4
v 0.1 -0.5 -0.5
v 0 -0.5 -0.5
v 0.1 0.3 0.3
v 0 0.3 0.3
v 0.1 0.3 0.2
v 0 0.3 0.2
v 0.1 0.3 -0.3
v 0 0.3 -0.3
v 0.1 0.3 -0.4
v 0 0.3 -0.4
v 0.1 0 0.4
v 0 0 0.4
v 0.1 0 0.3
v 0 0 0.3
v 0.1 0 -0.4
v 0 0 -0.4
v 0.1 0 -0.5
v 0 0 -0.5
v 0.1 0.1 0.3
v 0 0.1 0.3
v 0.1 0.1 0.2
v 0 0.1 0.2
v 0.1 0.1 -0.3
v 0 0.1 -0.3
v 0.1 0.1 -0.4
v 0 0.1 -0.4
v 0.1 0.5 0.3
v 0 0.5 0.3
v 0.1 0.5 0.2
v 0 0.5 0.2
v 0.1 0.5 -0.3
v 0 0.5 -0.3
v 0.1 0.5 -0.4
v 0 0.5 -0.4
v 0.1 0.6 0.2
v 0 0.6 0.2
v 0.1 0.6 0.1
v 0 0.6 0.1
v 0.1 0.6 -0.2
v 0 0.6 -0.2
v 0.1 0.6 -0.3
v 0 0.6 -0.3
v 0.1 0.7 0.1
v 0 0.7 0.1
v 0.1 0.7 -0.2
v 0 0.7 -0.2

# faces
f 1/1/1 2/1/1 4/1/1
f 4/1/1 2/1/1 5/1/1
f 3/1/1 4/1/1 8/1/1
f 4/2/1 5/2/1 9/2/1
f 8/1/1 4/1/1 9/1/1
f 5/1/1 6/1/1 10/1/1
f 9/2/1 5/2/1 10/2/1
f 10/1/1 6/1/1 11/1/1
f 9/4/1 10/4/1 13/4/1
f 13/4/1 10/4/1 14/4/1
f 7/1/1 8/1/1 15/1/1
f 8/2/1 9/2/1 16/2/1
f 15/1/1 8/1/1 16/1/1
f 9/4/1 13/4/1 17/4/1
f 16/2/1 9/2/1 17/2/1
f 13/5/1 14/5/1 18/5/1
f 17/4/1 13/4/1 18/4/1
f 14/4/1 10/4/1 19/4/1
f 18/5/1 14/5/1 19/5/1
f 10/2/1 11/2/1 20/2/1
f 19/4/1 10/4/1 20/4/1
f 11/1/1 12/1/1 21/1/1
f 20/2/1 11/2/1 21/2/1
f 21/1/1 12/1/1 22/1/1
f 16/1/1 17/1/1 23/1/1
f 17/2/1 18/2/1 24/2/1
f 23/1/1 17/1/1 24/1/1
f 18/4/1 19/4/1 25/4/1
f 24/2/1 18/2/1 25/2/1
f 25/4/1 19/4/1 26/4/1
f 26/4/1 19/4/1 27/4/1
f 19/2/1 20/2/1 28/2/1
f 27/4/1 19/4/1 28/4/1
f 20/1/1 21/1/1 29/1/1
f 28/2/1 20/2/1 29/2/1
f 29/1/1 21/1/1 30/1/1
f 24/1/1 25/1/1 32/1/1
f 25/2/1 26/2/1 33/2/1
f 32/1/1 25/1/1 33/1/1
f 26/4/1 27/4/1 34/4/1
f 33/2/1 26/2/1 34/2/1
f 27/2/1 28/2/1 35/2/1
f 34/4/1 27/4/1 35/4/1
f 28/1/1 29/1/1 36/1/1
f 35/2/1 28/2/1 36/2/1
f 36/1/1 29/1/1 37/1/1
f 31/1/1 32/1/1 39/1/1
f 32/2/1 33/2/1 40/2/1
f 39/1/1 32/1/1 40/1/1
f 33/3/1 34/3/1 41/3/1
f 40/2/1 33/2/1 41/2/1
f 34/3/1 35/3/1 41/3/1
f 35/3/1 36/3/1 41/3/1
f 36/2/1 37/2/1 42/2/1
f 41/3/1 36/3/1 42/3/1
f 37/1/1 38/1/1 43/1/1
f 42/2/1 37/2/1 43/2/1
f 43/1/1 38/1/1 44/1/1
f 40/1/1 41/1/1 45/1/1
f 41/2/1 42/2/1 46/2/1
f 45/1/1 41/1/1 46/1/1
f 42/1/1 43/1/1 47/1/1
f 46/2/1 42/2/1 47/2/1
f 47/1/1 43/1/1 48/1/1
f 46/1/1 47/1/1 49/1/1
f 49/1/1 47/1/1 50/1/1
f 54/1/2 52/1/2 51/1/2
f 55/1/2 52/1/2 54/1/2
f 58/1/2 54/1/2 53/1/2
f 59/2/2 55/2/2 54/2/2
f 59/1/2 54/1/2 58/1/2
f 60/1/2 56/1/2 55/1/2
f 60/2/2 55/2/2 59/2/2
f 61/1/2 56/1/2 60/1/2
f 63/4/2 60/4/2 59/4/2
f 64/4/2 60/4/2 63/4/2
f 65/1/2 58/1/2 57/1/2
f 66/2/2 59/2/2 58/2/2
f 66/1/2 58/1/2 65/1/2
f 67/4/2 63/4/2 59/4/2
f 67/2/2 59/2/2 66/2/2
f 68/5/2 64/5/2 63/5/2
f 68/4/2 63/4/2 67/4/2
f 69/4/2 60/4/2 64/4/2
f 69/5/2 64/5/2 68/5/2
f 70/2/2 61/2/2 60/2/2
f 70/4/2 60/4/2 69/4/2
f 71/1/2 62/1/2 61/1/2
f 71/2/2 61/2/2 70/2/2
f 72/1/2 62/1/2 71/1/2
f 73/1/2 67/1/2 66/1/2
f 74/2/2 68/2/2 67/2/2
f 74/1/2 67/1/2 73/1/2
f 75/4/2 69/4/2 68/4/2
f 75/2/2 68/2/2 74/2/2
f 76/4/2 69/4/2 75/4/2
f 77/4/2 69/4/2 76/4/2
f 78/2/2 70/2/2 69/2/2
f 78/4/2 69/4/2 77/4/2
f 79/1/2 71/1/2 70/1/2
f 79/2/2 70/2/2 78/2/2
f 80/1/2 71/1/2 79/1/2
f 82/1/2 75/1/2 74/1/2
f 83/2/2 76/2/2 75/2/2
f 83/1/2 75/1/2 82/1/2
f 84/4/2 77/4/2 76/4/2
f 84/2/2 76/2/2 83/2/2
f 85/2/2 78/2/2 77/2/2
f 85/4/2 77/4/2 84/4/2
f 86/1/2 79/1/2 78/1/2
f 86/2/2 78/2/2 85/2/2
f 87/1/2 79/1/2 86/1/2
f 89/1/2 82/1/2 81/1/2
f 90/2/2 83/2/2 82/2/2
f 90/1/2 82/1/2 89/1/2
f 91/3/2 84/3/2 83/3/2
f 91/2/2 83/2/2 90/2/2
f 91/3/2 85/3/2 84/3/2
f 91/3/2 86/3/2 85/3/2
f 92/2/2 87/2/2 86/2/2
f 92/3/2 86/3/2 91/3/2
f 93/1/2 88/1/2 87/1/2
f 93/2/2 87/2/2 92/2/2
f 94/1/2 88/1/2 93/1/2
f 95/1/2 91/1/2 90/1/2
f 96/2/2 92/2/2 91/2/2
f 96/1/2 91/1/2 95/1/2
f 97/1/2 93/1/2 92/1/2
f 97/2/2 92/2/2 96/2/2
f 98/1/2 93/1/2 97/1/2
f 99/1/2 97/1/2 96/1/2
f 100/1/2 97/1/2 99/1/2
f 101/1/3 102/1/3 103/1/3
f 103/1/3 102/1/3 104/1/3
f 105/1/3 106/1/3 111/1/3
f 111/1/3 106/1/3 112/1/3
f 107/1/3 108/1/3 113/1/3
f 113/1/3 108/1/3 114/1/3
f 109/1/3 110/1/3 115/1/3
f 115/1/3 110/1/3 116/1/3
f 117/1/3 118/1/3 123/1/3
f 123/1/3 118/1/3 124/1/3
f 119/1/3 120/1/3 125/1/3
f 125/1/3 120/1/3 126/1/3
f 121/1/3 122/1/3 127/1/3
f 127/1/3 122/1/3 128/1/3
f 129/1/3 130/1/3 131/1/3
f 131/1/3 130/1/3 132/1/3
f 135/1/4 134/1/4 133/1/4
f 136/1/4 134/1/4 135/1/4
f 143/1/4 138/1/4 137/1/4
f 144/1/4 138/1/4 143/1/4
f 145/1/4 140/1/4 139/1/4
f 146/1/4 140/1/4 145/1/4
f 147/1/4 142/1/4 141/1/4
f 148/1/4 142/1/4 147/1/4
f 155/1/4 150/1/4 149/1/4
f 156/1/4 150/1/4 155/1/4
f 157/1/4 152/1/4 151/1/4
f 158/1/4 152/1/4 157/1/4
f 159/1/4 154/1/4 153/1/4
f 160/1/4 154/1/4 159/1/4
f 163/1/4 162/1/4 161/1/4
f 164/1/4 162/1/4 163/1/4
f 165/1/5 166/1/5 167/1/5
f 167/1/5 166/1/5 168/1/5
f 169/1/5 170/1/5 171/1/5
f 171/1/5 170/1/5 172/1/5
f 173/1/5 174/1/5 175/1/5
f 175/1/5 174/1/5 176/1/5
f 177/1/5 178/1/5 179/1/5
f 179/1/5 178/1/5 180/1/5
f 181/1/5 182/1/5 183/1/5
f 183/1/5 182/1/5 184/1/5
f 185/1/5 186/1/5 187/1/5
f 187/1/5 186/1/5 188/1/5
f 189/1/5 190/1/5 191/1/5
f 191/1/5 190/1/5 192/1/5
f 195/1/6 194/1/6 193/1/6
f 196/1/6 194/1/6 195/1/6
f 199/1/6 198/1/6 197/1/6
f 200/1/6 198/1/6 199/1/6
f 203/1/6 202/1/6 201/1/6
f 204/1/6 202/1/6 203/1/6
f 207/1/6 206/1/6 205/1/6
f 208/1/6 206/1/6 207/1/6
f 211/1/6 210/1/6 209/1/6
f 212/1/6 210/1/6 211/1/6
f 215/1/6 214/1/6 213/1/6
f 216/1/6 214/1/6 215/1/6
f 219/1/6 218/1/6 217/1/6
f 220/1/6 218/1/6 219/1/6
f 223/1/6 222/1/6 221/1/6
f 224/1/6 222/1/6 223/1/6
f 227/1/6 226/1/6 225/1/6
f 228/1/6 226/1/6 227/1/6
